<svg width="241" height="99" fill="none" xmlns="http://www.w3.org/2000/svg"><path d="M32.54 10.76c-3.1-2.63-6.75-4.06-10.75-4.06-8.42 0-15.34 7.11-15.34 15.7s6.93 15.7 15.34 15.7c3.76 0 7.64-1.49 10.69-4.3v-7.94H21.79v1.01h9.67v6.51c-2.81 2.39-6.33 3.7-9.67 3.7-7.82 0-14.27-6.63-14.27-14.69 0-8.06 6.45-14.69 14.27-14.69 3.76 0 7.22 1.31 10.15 3.82l.6-.78v.02Z" fill="#fff"/><path d="M21.79 9.74c3.22 0 5.91 1.01 8.9 3.4l.6-.78c-2.81-2.33-5.97-3.64-9.49-3.64-7.22 0-13.2 6.15-13.2 13.67s5.97 13.67 13.2 13.67c2.93 0 6.09-1.08 8.66-3.16v-5.02H21.8v1.01h7.64v3.52c-2.45 1.97-5.08 2.63-7.64 2.63-6.69 0-12.12-5.43-12.12-12.66S15.11 9.72 21.8 9.72l-.01.02Z" fill="#fff"/><path d="M21.79 44.19c6.75 0 12.78-3.1 16.78-7.88V19.77H21.79v1.01h15.76v15.11c-3.94 4.48-9.85 7.28-15.76 7.28-11.4 0-20.72-9.31-20.72-20.78S10.39 1.62 21.79 1.62c5.08 0 9.91 1.79 13.79 5.19l.6-.78C32.12 2.51 27.1.6 21.79.6 9.79.61 0 10.4 0 22.4s9.79 21.79 21.79 21.79Z" fill="#fff"/><path d="M34.93 7.65c-3.76-3.22-8.3-5.02-13.14-5.02-10.8.01-19.64 8.9-19.64 19.77s8.84 19.76 19.64 19.76c5.55 0 10.81-2.39 14.75-6.63V21.8H21.79v1.02h13.73v12.3c-3.64 3.82-8.6 6.03-13.73 6.03-10.21 0-18.57-8.42-18.57-18.75S11.58 3.65 21.79 3.65c4.66 0 8.96 1.67 12.54 4.78l.6-.78Z" fill="#fff"/><path d="M33.73 9.21c-3.46-2.93-7.52-4.54-11.94-4.54-9.61 0-17.49 8-17.49 17.73s7.88 17.73 17.49 17.73c4.6 0 9.14-1.91 12.72-5.43V23.83H21.79v1.02h11.7v9.37c-3.28 3.22-7.46 4.9-11.7 4.9-9.02 0-16.42-7.52-16.42-16.72S12.78 5.68 21.79 5.68c4.24 0 8.06 1.49 11.34 4.3l.6-.78v.01Zm37.08 25.25H56.49v-8.42h13.13v-9.13H56.49v-6.57h14.32V1.2h-24v42.4h24v-9.14Zm19.41-11.94 23.23 21.67h.53V1.2h-9.67v21.14L81.09.61h-.54V43.6h9.67V22.52Zm52.31 21.08V10.34h10.74V1.2h-31.16v9.14h10.74V43.6h9.68Zm44.9-11.71c0-13.79-19.11-12.6-19.11-19.29 0-2.15 1.85-3.46 4.36-3.46 2.51 0 5.02 1.01 7.94 3.4l5.61-7.29C181.69 1.55 177.39 0 172.68 0c-8 0-14.57 5.85-14.57 12.6 0 13.79 19.11 12.6 19.11 19.29 0 2.33-1.85 3.76-4.84 3.76-2.99 0-5.79-1.19-9.19-4l-5.67 7.28c5.02 4.06 9.67 5.85 14.87 5.85 8.48 0 15.05-5.97 15.05-12.9l-.01.01Zm31.94 2.57h-14.33v-8.42h13.14v-9.13h-13.14v-6.57h14.33V1.2h-24v42.4h24v-9.14ZM4 97.6h9.67V81.24h13.14V72.1H13.67v-7.76H28V55.2H4v42.4Zm32 0h24.01v-9.14H45.68v-8.42h13.13v-9.13H45.68v-6.57h14.33V55.2H36v42.4Zm33.74 0h24v-9.14H79.41v-8.42h13.14v-9.13H79.41v-6.57h14.33V55.2h-24v42.4Zm40.96-30.99c0-2.15 1.85-3.46 4.36-3.46 2.51 0 5.02 1.01 7.94 3.4l5.61-7.29c-4.54-3.7-8.84-5.25-13.55-5.25-8 0-14.57 5.85-14.57 12.6 0 13.79 19.11 12.6 19.11 19.29 0 2.33-1.85 3.76-4.84 3.76-2.99 0-5.79-1.19-9.19-4l-5.67 7.28c5.02 4.06 9.67 5.85 14.87 5.85 8.48 0 15.05-5.97 15.05-12.9 0-13.79-19.11-12.6-19.11-19.29l-.01.01Zm23.23-2.27h10.75V97.6h9.67V64.34h10.75V55.2h-31.17v9.14Zm39.29 33.26h24v-9.14h-14.33v-8.42h13.14v-9.13h-13.14v-6.57h14.33V55.2h-24v42.4Zm57.5-42.4v21.14l-23.23-21.73h-.54V97.6h9.68V76.52l23.22 21.67h.54V55.2h-9.67Z" fill="#fff"/></svg>