<svg width="241" height="100" fill="none" xmlns="http://www.w3.org/2000/svg"><path d="M22.18 44.98c6.75 0 12.78-3.1 16.78-7.88V20.56H22.18v9.13h7.64v3.52c-2.45 1.97-5.08 2.63-7.64 2.63-6.69 0-12.12-5.43-12.12-12.66s5.43-12.66 12.12-12.66c3.22 0 5.91 1.01 8.9 3.4l5.49-7.11c-4.06-3.52-9.08-5.43-14.39-5.43-12 0-21.79 9.79-21.79 21.79s9.79 21.79 21.79 21.79v.02Zm49.02-9.73H56.88v-8.42h13.13V17.7H56.88v-6.57H71.2V1.99h-24v42.4h24v-9.14Zm19.41-11.94 23.23 21.67h.53V1.99h-9.67v21.14L81.48 1.4h-.54v42.99h9.67V23.31Zm44.78 21.08h1.08V8.08H122.5V9.1h12.89v35.29Zm7.53 0V11.13h10.74v-1.02h-11.82v34.28h1.08Z" fill="#fff"/><path d="M137.54 44.39h1.08V7.07h15.04V6.05H122.5v1.02h15.04v37.32Zm16.13-40.37H122.5v1.01h31.17V4.02Zm0-2.03H122.5V3h31.17V1.99Z" fill="#fff"/><path d="M153.66 8.08h-13.97v36.31h1.08V9.1h12.89V8.08Zm-19.34 36.31V10.11H122.5v1.02h10.74v33.26h1.08Zm53.8-11.71c0-13.79-19.11-12.6-19.11-19.29 0-2.15 1.85-3.46 4.36-3.46 2.51 0 5.02 1.01 7.94 3.4l5.61-7.29c-4.54-3.7-8.84-5.25-13.55-5.25-8 0-14.57 5.85-14.57 12.6 0 13.79 19.11 12.6 19.11 19.29 0 2.33-1.85 3.76-4.84 3.76-2.99 0-5.79-1.19-9.19-4l-5.67 7.28c5.02 4.06 9.67 5.85 14.87 5.85 8.48 0 15.05-5.97 15.05-12.9l-.01.01Zm31.94 2.57h-14.33v-8.42h13.14V17.7h-13.14v-6.57h14.33V1.99h-24v42.4h24v-9.14ZM4.39 98.39h9.67V82.03H27.2v-9.14H14.06v-7.76h14.33v-9.14h-24v42.4Zm32 0H60.4v-9.14H46.07v-8.42H59.2V71.7H46.07v-6.57H60.4v-9.14H36.39v42.4Zm33.74 0h24v-9.14H79.8v-8.42h13.14V71.7H79.8v-6.57h14.33v-9.14h-24v42.4Zm40.96-30.99c0-2.15 1.85-3.46 4.36-3.46 2.51 0 5.02 1.01 7.94 3.4l5.61-7.29c-4.54-3.7-8.84-5.25-13.55-5.25-8 0-14.57 5.85-14.57 12.6 0 13.79 19.11 12.6 19.11 19.29 0 2.33-1.85 3.76-4.84 3.76-2.99 0-5.79-1.19-9.19-4l-5.67 7.28c5.02 4.06 9.67 5.85 14.87 5.85 8.48 0 15.05-5.97 15.05-12.9 0-13.79-19.11-12.6-19.11-19.29l-.01.01Zm23.23-2.27h10.75v33.26h9.67V65.13h10.75v-9.14h-31.17v9.14Zm39.29 33.26h24v-9.14h-14.33v-8.42h13.14V71.7h-13.14v-6.57h14.33v-9.14h-24v42.4Zm57.5-42.4v21.14L207.88 55.4h-.54v42.99h9.68V77.31l23.22 21.67h.54V55.99h-9.67Z" fill="#fff"/></svg>