<svg width="241" height="100" fill="none" xmlns="http://www.w3.org/2000/svg"><path d="M22.18 44.77c6.75 0 12.78-3.1 16.78-7.88V20.35H22.18v9.13h7.64V33c-2.45 1.97-5.08 2.63-7.64 2.63-6.69 0-12.12-5.43-12.12-12.66s5.43-12.66 12.12-12.66c3.22 0 5.91 1.01 8.9 3.4l5.49-7.11c-4.06-3.52-9.08-5.43-14.39-5.43-12 0-21.79 9.79-21.79 21.79s9.79 21.79 21.79 21.79v.02Zm49.02-9.73H56.88v-8.42h13.13v-9.13H56.88v-6.57H71.2V1.78h-24v42.4h24v-9.14ZM90.61 23.1l23.23 21.67h.54V1.78h-9.68v21.14L81.48 1.19h-.54v42.99h9.67V23.1Zm52.31 21.08V10.92h10.74V1.78H122.5v9.14h10.74v33.26h9.68Zm44.9-11.71c0-13.79-19.11-12.6-19.11-19.29 0-2.15 1.85-3.46 4.36-3.46 2.51 0 5.02 1.01 7.94 3.4l5.61-7.29c-4.54-3.7-8.84-5.25-13.55-5.25-8 0-14.57 5.85-14.57 12.6 0 13.79 19.11 12.6 19.11 19.29 0 2.33-1.85 3.76-4.84 3.76-2.99 0-5.79-1.19-9.19-4l-5.67 7.28c5.02 4.06 9.67 5.85 14.87 5.85 8.48 0 15.05-5.97 15.05-12.9l-.01.01Zm31.94-26.63h-19.7v34.28h19.7V39.1h-18.62V22.56h17.43v-1.01h-17.43V6.86h18.62V5.84Z" fill="#fff"/><path d="M219.76 43.16h-22.92V2.8h22.92V1.78h-24v42.4h24v-1.02Z" fill="#fff"/><path d="M218.57 24.59v-1.01h-16.36v14.51h17.55v-1.02h-16.47V24.59h15.28Z" fill="#fff"/><path d="M219.76 3.81h-21.85v38.34h21.85v-1.02h-20.77V4.83h20.77V3.81Z" fill="#fff"/><path d="M219.76 35.04h-14.33v-8.42h13.14v-1.01h-14.21v10.45h15.4v-1.02Zm0-24.12V9.9h-15.4v8.6h14.21v-1.01h-13.14v-6.57h14.33Z" fill="#fff"/><path d="M219.76 7.87h-17.55v12.66h16.36v-1.01h-15.28V8.89h16.47V7.87ZM4.39 98.18h9.67V81.82H27.2v-9.14H14.06v-7.76h14.33v-9.14h-24v42.4Zm32 0H60.4v-9.14H46.07v-8.42H59.2v-9.13H46.07v-6.57H60.4v-9.14H36.39v42.4Zm33.74 0h24v-9.14H79.8v-8.42h13.14v-9.13H79.8v-6.57h14.33v-9.14h-24v42.4Zm40.96-30.99c0-2.15 1.85-3.46 4.36-3.46 2.51 0 5.01 1.01 7.94 3.4l5.61-7.29c-4.54-3.7-8.84-5.25-13.55-5.25-8 0-14.57 5.85-14.57 12.6 0 13.79 19.11 12.6 19.11 19.29 0 2.33-1.85 3.76-4.84 3.76-2.99 0-5.79-1.19-9.2-4l-5.67 7.28c5.02 4.06 9.67 5.85 14.87 5.85 8.48 0 15.05-5.97 15.05-12.9 0-13.79-19.11-12.6-19.11-19.29v.01Zm23.23-2.27h10.75v33.26h9.67V64.92h10.75v-9.14h-31.17v9.14Zm39.29 33.26h24v-9.14h-14.33v-8.42h13.14v-9.13h-13.14v-6.57h14.33v-9.14h-24v42.4Zm57.5-42.4v21.14l-23.23-21.73h-.54v42.99h9.68V77.1l23.22 21.67h.54V55.78h-9.67Z" fill="#fff"/></svg>