<svg width="241" height="100" fill="none" xmlns="http://www.w3.org/2000/svg"><path d="M21.79 44.98c6.75 0 12.78-3.1 16.78-7.88V20.56H21.79v9.13h7.64v3.52c-2.45 1.97-5.08 2.63-7.64 2.63-6.69 0-12.12-5.43-12.12-12.66s5.43-12.66 12.12-12.66c3.22 0 5.91 1.01 8.9 3.4l5.49-7.11c-4.06-3.52-9.08-5.43-14.39-5.43C9.79 1.38 0 11.17 0 23.17s9.79 21.79 21.79 21.79v.02Zm49.02-9.73H56.49v-8.42h13.13V17.7H56.49v-6.57h14.32V1.99h-24v42.4h24v-9.14ZM81.62 3.31l23.77 22.33V1.99h-1.08v21.14L81.09 1.4h-.54v42.99h1.07V3.31Z" fill="#fff"/><path d="M84.85 44.39h1.07V13.34l23.77 22.27V1.99h-1.08V33.1L84.85 10.83v33.56Z" fill="#fff"/><path d="M82.7 44.39h1.07V8.32l23.77 22.27V1.99h-1.08v26.1L82.7 5.82v38.57Z" fill="#fff"/><path d="M87 44.39h1.07V18.35l23.77 22.22V1.99h-1.08v36.13L87 15.85v28.54Z" fill="#fff"/><path d="M89.15 44.39h1.07V23.31l23.23 21.67h.53V1.99h-1.07v41.08L89.15 20.8v23.59Zm53.38 0V11.13h10.74V1.99h-31.16v9.14h10.74v33.26h9.68Zm44.9-11.71c0-13.79-19.11-12.6-19.11-19.29 0-2.15 1.85-3.46 4.36-3.46 2.51 0 5.02 1.01 7.94 3.4l5.61-7.29c-4.54-3.7-8.84-5.25-13.55-5.25-8 0-14.57 5.85-14.57 12.6 0 13.79 19.11 12.6 19.11 19.29 0 2.33-1.85 3.76-4.84 3.76-2.99 0-5.79-1.19-9.19-4l-5.67 7.28c5.02 4.06 9.67 5.85 14.87 5.85 8.48 0 15.05-5.97 15.05-12.9l-.01.01Zm31.94 2.57h-14.33v-8.42h13.14V17.7h-13.14v-6.57h14.33V1.99h-24v42.4h24v-9.14ZM4 98.39h9.67V82.03h13.14v-9.14H13.67v-7.76H28v-9.14H4v42.4Zm32 0h24.01v-9.14H45.68v-8.42h13.13V71.7H45.68v-6.57h14.33v-9.14H36v42.4Zm33.74 0h24v-9.14H79.41v-8.42h13.14V71.7H79.41v-6.57h14.33v-9.14h-24v42.4ZM110.7 67.4c0-2.15 1.85-3.46 4.36-3.46 2.51 0 5.02 1.01 7.94 3.4l5.61-7.29c-4.54-3.7-8.84-5.25-13.55-5.25-8 0-14.57 5.85-14.57 12.6 0 13.79 19.11 12.6 19.11 19.29 0 2.33-1.85 3.76-4.84 3.76-2.99 0-5.79-1.19-9.19-4l-5.67 7.28c5.02 4.06 9.67 5.85 14.87 5.85 8.48 0 15.05-5.97 15.05-12.9 0-13.79-19.11-12.6-19.11-19.29l-.01.01Zm23.23-2.27h10.75v33.26h9.67V65.13h10.75v-9.14h-31.17v9.14Zm39.29 33.26h24v-9.14h-14.33v-8.42h13.14V71.7h-13.14v-6.57h14.33v-9.14h-24v42.4Zm57.5-42.4v21.14L207.49 55.4h-.54v42.99h9.68V77.31l23.22 21.67h.54V55.99h-9.67Z" fill="#fff"/></svg>