<svg width="241" height="99" fill="none" xmlns="http://www.w3.org/2000/svg"><path d="M22.18 44.19c6.75 0 12.78-3.1 16.78-7.88V19.77H22.18v9.13h7.64v3.52c-2.45 1.97-5.08 2.63-7.64 2.63-6.69 0-12.12-5.43-12.12-12.66S15.49 9.73 22.18 9.73c3.22 0 5.91 1.01 8.9 3.4l5.49-7.11C32.51 2.5 27.49.59 22.18.59 10.18.59.39 10.38.39 22.38s9.79 21.79 21.79 21.79v.02ZM71.2 3.23H49.35v38.34H71.2v-1.02H50.43V4.25H71.2V3.23Z" fill="#fff"/><path d="M71.2 7.29H53.65v12.66h16.36v-1.01H54.73V8.31H71.2V7.29Zm-1.19 16.72V23H53.65v14.51H71.2v-1.02H54.73V24.01h15.28Z" fill="#fff"/><path d="M71.2 42.58H48.28V2.22H71.2V1.2h-24v42.4h24v-1.02Z" fill="#fff"/><path d="M71.2 34.46H56.88v-8.42h13.13v-1.01H55.8v10.45h15.4v-1.02Zm0-24.12V9.32H55.8v8.6h14.21v-1.01H56.88v-6.57H71.2Z" fill="#fff"/><path d="M71.2 5.26H51.5v34.28h19.7v-1.02H52.58V21.98h17.43v-1.01H52.58V6.28H71.2V5.26Zm19.41 17.26 23.23 21.67h.53V1.2h-9.67v21.14L81.48.61h-.54V43.6h9.67V22.52Zm52.31 21.08V10.34h10.74V1.2H122.5v9.14h10.74V43.6h9.68Zm44.9-11.71c0-13.79-19.11-12.6-19.11-19.29 0-2.15 1.85-3.46 4.36-3.46 2.51 0 5.02 1.01 7.94 3.4l5.61-7.29C182.08 1.55 177.78 0 173.07 0c-8 0-14.57 5.85-14.57 12.6 0 13.79 19.11 12.6 19.11 19.29 0 2.33-1.85 3.76-4.84 3.76-2.99 0-5.79-1.19-9.19-4l-5.67 7.28c5.02 4.06 9.67 5.85 14.87 5.85 8.48 0 15.05-5.97 15.05-12.9l-.01.01Zm31.94 2.57h-14.33v-8.42h13.14v-9.13h-13.14v-6.57h14.33V1.2h-24v42.4h24v-9.14ZM4.39 97.6h9.67V81.24H27.2V72.1H14.06v-7.76h14.33V55.2h-24v42.4Zm32 0H60.4v-9.14H46.07v-8.42H59.2v-9.13H46.07v-6.57H60.4V55.2H36.39v42.4Zm33.74 0h24v-9.14H79.8v-8.42h13.14v-9.13H79.8v-6.57h14.33V55.2h-24v42.4Zm40.96-30.99c0-2.15 1.85-3.46 4.36-3.46 2.51 0 5.02 1.01 7.94 3.4l5.61-7.29c-4.54-3.7-8.84-5.25-13.55-5.25-8 0-14.57 5.85-14.57 12.6 0 13.79 19.11 12.6 19.11 19.29 0 2.33-1.85 3.76-4.84 3.76-2.99 0-5.79-1.19-9.19-4l-5.67 7.28c5.02 4.06 9.67 5.85 14.87 5.85 8.48 0 15.05-5.97 15.05-12.9 0-13.79-19.11-12.6-19.11-19.29l-.01.01Zm23.23-2.27h10.75V97.6h9.67V64.34h10.75V55.2h-31.17v9.14Zm39.29 33.26h24v-9.14h-14.33v-8.42h13.14v-9.13h-13.14v-6.57h14.33V55.2h-24v42.4Zm57.5-42.4v21.14l-23.23-21.73h-.54V97.6h9.68V76.52l23.22 21.67h.54V55.2h-9.67Z" fill="#fff"/></svg>