<svg width="241" height="100" fill="none" xmlns="http://www.w3.org/2000/svg"><path d="M21.79 44.76c6.75 0 12.78-3.1 16.78-7.88V20.34H21.79v9.13h7.64v3.52c-2.45 1.97-5.08 2.63-7.64 2.63-6.69 0-12.12-5.43-12.12-12.66S15.1 10.3 21.79 10.3c3.22 0 5.91 1.01 8.9 3.4l5.49-7.11c-4.06-3.52-9.08-5.43-14.39-5.43C9.79 1.16 0 10.95 0 22.95s9.79 21.79 21.79 21.79v.02Zm49.02-9.73H56.49v-8.42h13.13v-9.13H56.49v-6.57h14.32V1.77h-24v42.4h24v-9.14Zm19.41-11.94 23.23 21.67h.53V1.77h-9.67v21.14L81.09 1.18h-.54v42.99h9.67V23.09Zm52.31 21.08V10.91h10.74V1.77h-31.16v9.14h10.74v33.26h9.68Zm41.61-35.23c-3.7-2.99-7.28-4.3-11.17-4.3-5.67 0-10.03 3.94-10.03 8.54 0 10.81 19.11 9.37 19.11 19.29 0 4.18-3.82 7.82-9.37 7.82-4.18 0-7.82-1.61-11.76-4.78l-.66.84c4.18 3.34 8.06 4.96 12.42 4.96 6.15 0 10.51-4.06 10.51-8.84 0-10.81-19.11-9.37-19.11-19.29 0-4 3.82-7.52 8.9-7.52 3.7 0 7.1 1.25 10.57 4.06l.6-.78h-.01Z" fill="#fff"/><path d="M177.52 32.46c0 2.33-1.85 3.76-4.84 3.76-2.99 0-5.79-1.19-9.19-4l-.66.84c3.4 2.69 6.39 4.18 9.85 4.18 3.82 0 5.97-2.21 5.97-4.78 0-7.58-19.11-5.97-19.11-19.29 0-6.21 6.03-11.58 13.43-11.58 4.54 0 8.6 1.49 12.96 5.02l.6-.78c-4.54-3.7-8.84-5.25-13.55-5.25-8 0-14.57 5.85-14.57 12.6 0 13.79 19.11 12.6 19.11 19.29v-.01Z" fill="#fff"/><path d="M165.22 13.18c0 9.19 19.11 7.76 19.11 19.29 0 5.31-4.9 9.85-11.64 9.85-4.6 0-8.66-1.61-13.08-5.13l-.6.78c4.66 3.7 8.9 5.37 13.67 5.37 7.34 0 12.78-5.02 12.78-10.87 0-12.6-19.11-10.99-19.11-19.29 0-2.93 2.69-5.49 6.63-5.49 3.22 0 6.15 1.25 9.25 3.7l.66-.84c-3.28-2.63-6.45-3.88-9.91-3.88-4.54 0-7.76 3.05-7.76 6.51Z" fill="#fff"/><path d="M185.34 7.39c-4.18-3.34-8.06-4.78-12.36-4.78-6.87 0-12.3 4.9-12.3 10.57 0 12.6 19.11 10.99 19.11 19.29 0 3.1-2.69 5.79-7.11 5.79-3.7 0-6.93-1.55-10.51-4.36l-.66.84c3.76 2.99 7.22 4.54 11.17 4.54 5.02 0 8.24-3.16 8.24-6.81 0-9.19-19.11-7.76-19.11-19.29 0-5.13 4.9-9.55 11.17-9.55 4.12 0 7.82 1.37 11.76 4.54l.6-.78Z" fill="#fff"/><path d="M187.73 32.46c0-13.79-19.11-12.6-19.11-19.29 0-2.15 1.85-3.46 4.36-3.46 2.51 0 5.02 1.01 7.94 3.4l.66-.84c-2.93-2.33-5.61-3.58-8.6-3.58-3.34 0-5.49 2.09-5.49 4.48 0 7.58 19.11 5.97 19.11 19.29 0 6.39-6.03 11.88-13.91 11.88-5.02 0-9.43-1.73-14.27-5.61l-.6.78c5.02 4.06 9.67 5.85 14.87 5.85 8.48 0 15.05-5.97 15.05-12.9h-.01Zm31.94 2.57h-14.33v-8.42h13.14v-9.13h-13.14v-6.57h14.33V1.77h-24v42.4h24v-9.14ZM4 98.17h9.67V81.81h13.14v-9.14H13.67v-7.76H28v-9.14H4v42.4Zm32 0h24.01v-9.14H45.68v-8.42h13.13v-9.13H45.68v-6.57h14.33v-9.14H36v42.4Zm33.74 0h24v-9.14H79.41v-8.42h13.14v-9.13H79.41v-6.57h14.33v-9.14h-24v42.4Zm40.96-30.99c0-2.15 1.85-3.46 4.36-3.46 2.51 0 5.02 1.01 7.94 3.4l5.61-7.29c-4.54-3.7-8.84-5.25-13.55-5.25-8 0-14.57 5.85-14.57 12.6 0 13.79 19.11 12.6 19.11 19.29 0 2.33-1.85 3.76-4.84 3.76-2.99 0-5.79-1.19-9.19-4l-5.67 7.28c5.02 4.06 9.67 5.85 14.87 5.85 8.48 0 15.05-5.97 15.05-12.9 0-13.79-19.11-12.6-19.11-19.29l-.01.01Zm23.23-2.27h10.75v33.26h9.67V64.91h10.75v-9.14h-31.17v9.14Zm39.29 33.26h24v-9.14h-14.33v-8.42h13.14v-9.13h-13.14v-6.57h14.33v-9.14h-24v42.4Zm57.5-42.4v21.14l-23.23-21.73h-.54v42.99h9.68V77.09l23.22 21.67h.54V55.77h-9.67Z" fill="#fff"/></svg>