<!-- Generated by IcoMoon.io -->
<svg version="1.1" xmlns="http://www.w3.org/2000/svg" width="32" height="32" viewBox="0 0 32 32">
<title>balloon</title>
<path d="M16 0c-8.822 0-16 7.178-16 16s7.178 16 16 16c8.822 0 15.999-7.178 15.999-16s-7.178-16-15.999-16zM16 29.091c-7.218 0-13.091-5.872-13.091-13.091s5.873-13.091 13.091-13.091 13.090 5.873 13.090 13.091c0 7.219-5.872 13.091-13.090 13.091zM20.659 18.030c-0.017 0.023-1.825 2.334-4.658 2.334-2.813 0-4.616-2.277-4.659-2.332-0.483-0.639-1.389-0.767-2.032-0.285s-0.773 1.393-0.29 2.035c0.107 0.143 2.668 3.491 6.982 3.491s6.874-3.348 6.981-3.491c0.48-0.639 0.351-1.544-0.287-2.027-0.638-0.486-1.55-0.359-2.035 0.276zM11.651 13.091c0.803 0 1.455-0.651 1.455-1.455s-0.651-1.455-1.455-1.455h-0.014c-0.803 0-1.447 0.651-1.447 1.455s0.658 1.455 1.462 1.455zM20.379 13.091c0.804 0 1.455-0.651 1.455-1.455s-0.651-1.455-1.455-1.455h-0.016c-0.804 0-1.446 0.651-1.446 1.455s0.658 1.455 1.462 1.455z"></path>
</svg>
