<!-- Generated by IcoMoon.io -->
<svg version="1.1" xmlns="http://www.w3.org/2000/svg" width="32" height="32" viewBox="0 0 32 32">
<title>calendar-remove</title>
<path d="M3.5 13h25v-4c0-0.828-0.672-1.5-1.5-1.5v0h-3v0.5c0 0.828-0.672 1.5-1.5 1.5s-1.5-0.672-1.5-1.5v0-0.5h-10v0.5c0 0.828-0.672 1.5-1.5 1.5s-1.5-0.672-1.5-1.5v0-0.5h-3c-0.828 0-1.5 0.672-1.5 1.5v0 4zM8 4.5v-1.5c0-0.828 0.672-1.5 1.5-1.5s1.5 0.672 1.5 1.5v0 1.5h10v-1.5c0-0.828 0.672-1.5 1.5-1.5s1.5 0.672 1.5 1.5v0 1.5h3c2.485 0 4.5 2.015 4.5 4.5v0 16c0 2.485-2.015 4.5-4.5 4.5v0h-22c-2.485 0-4.5-2.015-4.5-4.5v0-16c0-2.485 2.015-4.5 4.5-4.5v0h3zM13 21.5h6c0.552 0 1-0.448 1-1s-0.448-1-1-1v0h-6c-0.552 0-1 0.448-1 1s0.448 1 1 1v0z"></path>
</svg>
