<!-- Generated by IcoMoon.io -->
<svg version="1.1" xmlns="http://www.w3.org/2000/svg" width="32" height="32" viewBox="0 0 32 32">
<title>calendar</title>
<path d="M18 22.084c0 0.828-0.672 1.5-1.5 1.5v0h-5c-0.828 0-1.5-0.672-1.5-1.5s0.672-1.5 1.5-1.5v0h5c0.828 0 1.5 0.672 1.5 1.5v0zM22.5 17c0 0.828-0.672 1.5-1.5 1.5v0h-9.5c-0.828 0-1.5-0.672-1.5-1.5s0.672-1.5 1.5-1.5v0h9.5c0.828 0 1.5 0.672 1.5 1.5v0zM25 25.5h-17c-0.542 0-1-0.459-1-1v-11h19v11c0 0.541-0.458 1-1 1zM7 8.5c0-0.542 0.458-1 1-1h2c0 0.828 0.672 1.5 1.5 1.5s1.5-0.672 1.5-1.5v0h7.5c0 0.828 0.672 1.5 1.5 1.5s1.5-0.672 1.5-1.5v0h1.5c0.542 0 1 0.458 1 1v2h-19v-2zM25 4.5h-1.5c0-0.828-0.672-1.5-1.5-1.5s-1.5 0.672-1.5 1.5v0h-7.5c0-0.828-0.672-1.5-1.5-1.5s-1.5 0.672-1.5 1.5v0h-2c-2.2 0-4 1.8-4 4v16c0 2.2 1.8 4 4 4h17c2.2 0 4-1.8 4-4v-16c0-2.2-1.8-4-4-4z"></path>
</svg>
