<!-- Generated by IcoMoon.io -->
<svg version="1.1" xmlns="http://www.w3.org/2000/svg" width="32" height="32" viewBox="0 0 32 32">
<title>chat</title>
<path d="M21 14c-1.105 0-2 0.896-2 2s0.896 2 2 2c0 0 0 0 0.001 0h-0c1.105-0 2-0.896 2-2s-0.896-2.001-2-2.001c-0 0-0 0-0.001 0h0M16 14c-1.105 0-2 0.896-2 2s0.896 2 2 2c0 0 0 0 0.001 0h-0c1.105-0 2-0.896 2-2s-0.896-2.001-2-2.001c-0 0-0 0-0.001 0h0M11 14c-1.105 0-2 0.896-2 2s0.896 2 2.001 2c0 0 0 0 0.001 0h-0c1.105-0 2-0.896 2-2s-0.896-2.001-2.001-2.001c-0 0-0 0-0.001 0h0M25 6h-18c-2.2 0-4 1.8-4 4v11c0 2.2 1.8 4 4 4h5l3.938 3.063 3.968-3.063h5.094c2.2 0 4-1.8 4-4v-11c0-2.2-1.8-4-4-4M25 9c0.542 0 1 0.458 1 1v11c0 0.542-0.458 1-1 1h-6.117l-2.938 2.268-2.916-2.268h-6.029c-0.542 0-1-0.458-1-1v-11c0-0.542 0.458-1 1-1h18"></path>
</svg>
