<!-- Generated by IcoMoon.io -->
<svg version="1.1" xmlns="http://www.w3.org/2000/svg" width="32" height="32" viewBox="0 0 32 32">
<title>chat-round</title>
<path d="M16.78 12.22c0 0.96 0.787 1.739 1.757 1.739s1.756-0.779 1.756-1.738c0-0.96-0.786-1.738-1.756-1.738s-1.756 0.778-1.756 1.738M11.744 12.221c0 0.96 0.786 1.738 1.756 1.738s1.756-0.779 1.756-1.738c0-0.96-0.786-1.738-1.756-1.738s-1.756 0.778-1.756 1.738M8.464 10.483c-0.971 0-1.757 0.778-1.757 1.738s0.786 1.738 1.756 1.738 1.756-0.779 1.756-1.738c0-0.96-0.786-1.738-1.756-1.738M13.5 2.86c-5.85 0-10.61 4.1-10.61 9.14 0 2.994 1.712 5.804 4.578 7.517 0.339 0.202 0.58 0.533 0.664 0.916l0.586 2.633 2.274-1.728c0.3-0.228 0.677-0.33 1.053-0.286 0.495 0.059 0.985 0.089 1.455 0.089 5.85 0 10.61-4.1 10.61-9.14s-4.76-9.14-10.61-9.14M7.796 27c-0.167 0-0.334-0.029-0.495-0.087-0.46-0.168-0.805-0.551-0.915-1.025l-0.002-0.010-0.946-4.25c-3.417-2.261-5.438-5.818-5.438-9.628 0-6.616 6.056-12 13.5-12s13.5 5.384 13.5 12c0 6.617-6.056 12.001-13.5 12.001-0.393 0-0.795-0.017-1.201-0.050l-3.623 2.753c-0.242 0.185-0.548 0.296-0.88 0.296 0 0-0 0-0 0v0"></path>
</svg>
