<!-- Generated by IcoMoon.io -->
<svg version="1.1" xmlns="http://www.w3.org/2000/svg" width="32" height="32" viewBox="0 0 32 32">
<title>checkmark-circle</title>
<path d="M15.060 21.060l8-8c0.294-0.275 0.477-0.665 0.477-1.097 0-0.828-0.672-1.5-1.5-1.5-0.433 0-0.823 0.183-1.097 0.477l-0.001 0.001-6.94 6.938-2.94-2.938c-0.275-0.294-0.665-0.477-1.097-0.477-0.828 0-1.5 0.672-1.5 1.5 0 0.433 0.183 0.823 0.477 1.097l0.001 0.001 4 4c0.271 0.273 0.646 0.441 1.060 0.441s0.79-0.169 1.060-0.441l0-0M15.998 2c-7.728 0-13.998 6.268-13.998 14s6.27 14 14 14c7.732 0 14-6.268 14-14s-6.267-14-14-14M16 5c6.066 0 11 4.934 11 11s-4.933 11-11 11c-6.066 0-11-4.934-11-11s4.935-11 11-11"></path>
</svg>
