<svg xmlns="http://www.w3.org/2000/svg" viewBox="0 0 30 30"><path d="m25.91 14.46.37-.16c.3.36.62.7.89 1.08.58.79 1.16 1.83 2.31 1.02.99-.69.32-1.62-.1-2.35-.83-1.44-1.78-2.81-2.61-4.25-1.04-1.8-2.54-2.36-4.62-2.45-3.61-.15-4.44 2.69-5.86 4.92-.79 1.23-2.65 2.77-1.1 4.05 1.67 1.38 1.95-1.62 3.38-1.94.27.6-.17 1.1-.23 1.65-.17 1.64-2.11 3.27-.43 4.85.99.93.87 1.84.87 2.88l-.03 4.41c0 .81.08 1.75 1.05 1.81 1.19.08 1.28-.95 1.34-1.86.12-1.76.24-3.52.39-5.27.05-.54-.05-1.34.73-1.38 1.05-.06.86.87.9 1.49.08 1.37.07 2.74.14 4.11.06 1.13-.21 2.88 1.24 2.86 1.85-.02 1.09-1.88 1.22-3.04.21-1.88-.85-4 .6-5.62.98-1.1.85-2.07.53-3.23l-1-3.58Zm-22.8 6.36c-1.15 3.06 1.87 5.4 1.05 8.12-.08.28.45.62.89.54.76-.13.71-.8.86-1.35.29-1.07-.02-2.95 1.17-2.98 1.57-.03.71 1.83 1.05 2.82.25.76.49 1.63 1.48 1.46.84-.14.88-.99.8-1.67-.3-2.69 1.59-5.35-.03-8.1-.79-1.33.71-1.53 1.48-1.95.67-.37 1.12-.78.85-1.61-.35-1.08-1.08-.46-1.68-.36-1.25.2-2.52.67-3.74.58-3.08-.23-4.83 1.74-6.67 3.62-.41.42-.85.96-.45 1.54.49.71 1.16.54 1.79.1.38-.27.78-.51 1.17-.77ZM25 3.19c-.04-2.1-1.28-3.16-2.91-3.16-1.67 0-2.87 1.22-2.8 3.06.06 1.76.95 2.94 2.88 2.89 1.89-.06 2.72-1.2 2.83-2.79ZM6.96 9.74c-1.4.24-2.58 1.11-2.59 2.74-.01 1.64 1.04 2.65 2.78 2.65 1.62 0 2.53-.85 2.59-2.47.06-1.72-.85-2.67-2.78-2.93Z"/></svg>