<!-- Generated by IcoMoon.io -->
<svg version="1.1" xmlns="http://www.w3.org/2000/svg" width="21" height="32" viewBox="0 0 21 32">
<title>clock</title>
<path d="M21.332 15.999c0-3.044-1.288-5.787-3.341-7.732l-0.424-4.627c-0.090-1-0.548-1.923-1.292-2.598s-1.7-1.038-2.703-1.042h-5.801c-1.001 0.001-1.959 0.373-2.697 1.048s-1.193 1.596-1.284 2.59l-0.42 4.6c-2.070 1.947-3.372 4.701-3.372 7.76 0 3.053 1.296 5.803 3.358 7.749l0.421 4.611c0.090 0.997 0.548 1.921 1.292 2.6 0.739 0.671 1.695 1.040 2.687 1.040 0.005 0 0.010 0 0.016 0h5.768c0.986 0.012 1.965-0.366 2.71-1.043 0.742-0.677 1.2-1.6 1.29-2.596l0.42-4.601c2.069-1.947 3.37-4.701 3.37-7.76zM6.449 3.88c0.030-0.332 0.182-0.639 0.428-0.864 0.245-0.225 0.564-0.349 0.897-0.349h5.806c0.327 0.003 0.654 0.121 0.902 0.347 0.247 0.225 0.4 0.533 0.43 0.868l0.224 2.447c-1.362-0.632-2.872-0.995-4.469-0.995-1.586 0-3.087 0.357-4.441 0.981l0.223-2.434zM2.667 15.999c0-4.411 3.588-7.999 8-7.999s7.999 3.589 7.999 7.999c0 2.284-0.966 4.341-2.505 5.8h-10.988c-1.539-1.459-2.506-3.516-2.506-5.8zM14.886 28.12c-0.030 0.333-0.184 0.642-0.428 0.866-0.247 0.224-0.566 0.348-0.905 0.348-0.001 0-0.004 0-0.005 0h-5.779c-0.3-0.025-0.656-0.122-0.902-0.345-0.249-0.227-0.402-0.535-0.432-0.87l-0.223-2.439c1.358 0.627 2.863 0.987 4.454 0.987 1.586 0 3.087-0.358 4.441-0.981l-0.222 2.435zM11.723 18.943c0.26 0.26 0.602 0.391 0.943 0.391s0.682-0.13 0.943-0.391c0.521-0.52 0.521-1.365 0-1.885l-1.609-1.61v-3.447c0-0.736-0.597-1.333-1.333-1.333s-1.333 0.597-1.333 1.333v3.999c0 0.353 0.141 0.693 0.39 0.943l1.999 2.001z"></path>
</svg>
