<svg xmlns="http://www.w3.org/2000/svg" viewBox="0 0 30 30"><path d="M14.94 29.96c8.53-.2 14.91-6.54 15.06-14.87C30.14 6.83 23.33.11 15.15.04 6.96-.03-.07 6.25 0 15.04c.07 8.79 6.72 14.65 14.94 14.93Zm.18-26.61c6.69.09 11.19 4.92 11.68 11.68-.52 6.32-4.29 11.57-11.76 11.6-7.29.03-11.48-4.79-11.75-11.56A11.4 11.4 0 0 1 15.13 3.34Z"/><path d="M13.7 15.77a61.15 61.15 0 0 0 4.28 4.24c.68.6 1.47.18 2.01-.46.51-.6.46-1.23-.07-1.8-.65-.7-1.27-1.44-2-2.06a3.66 3.66 0 0 1-1.38-3.27c.1-1.53.03-3.06 0-4.59-.02-.99-.56-1.69-1.54-1.71-1-.02-1.54.7-1.57 1.69-.04 1.15 0 2.3 0 3.45h-.01c0 1.05-.03 2.11.01 3.16.02.46 0 1.07.28 1.36Z"/></svg>