<!-- Generated by IcoMoon.io -->
<svg version="1.1" xmlns="http://www.w3.org/2000/svg" width="32" height="32" viewBox="0 0 32 32">
<title>digipolis</title>
<path d="M32 16c0 8.837-7.163 16-16 16s-16-7.163-16-16 7.163-16 16-16 16 7.163 16 16zM16 3.936c-6.662 0-12.064 5.402-12.064 12.064 0 6.663 5.402 12.064 12.064 12.064s12.064-5.401 12.064-12.064c0-6.662-5.402-12.064-12.064-12.064zM8.539 21.81v-8.492c0.001-0.148 0.053-1.46 1.46-1.46h8.245v-4.070c0.007-0.247 0.182-0.247 0.247-0.247h3.641c0.065 0 0.239 0 0.247 0.252v6.74c0 0.148-0.054 1.46-1.46 1.46h-8.246v3.146h9.458c0.065 0 0.239 0 0.247 0.251v3.634c-0.009 0.247-0.182 0.247-0.246 0.247h-12.135c-1.407 0-1.458-1.312-1.46-1.461z"></path>
</svg>
