<!-- Generated by IcoMoon.io -->
<svg version="1.1" xmlns="http://www.w3.org/2000/svg" width="32" height="32" viewBox="0 0 32 32">
<title>document</title>
<path d="M21.833 6c1.742 0 3.167 1.454 3.167 3.23v14.54c0 1.775-1.425 3.23-3.167 3.23h-12.666c-1.742 0-3.167-1.455-3.167-3.23v-14.54c0-1.775 1.425-3.23 3.167-3.23h12.666zM21.833 8.423h-12.666c-0.439 0.010-0.791 0.368-0.792 0.808v14.538c0.001 0.44 0.353 0.798 0.791 0.808l0.001 0h12.666c0.439-0.010 0.791-0.368 0.792-0.808v-14.538c-0.001-0.44-0.353-0.798-0.791-0.808l-0.001-0zM16.885 20.807c0-0.003 0-0.007 0-0.011 0-0.658-0.53-1.193-1.186-1.2h-3.959c-0.658 0.007-1.188 0.541-1.188 1.2 0 0.004 0 0.008 0 0.012v-0.001c-0 0.004-0 0.008-0 0.012 0 0.659 0.53 1.193 1.187 1.2h3.959c0.657-0.007 1.187-0.542 1.187-1.2 0-0.004-0-0.008-0-0.013v0.001zM20.448 12.529c0-0.004 0-0.008 0-0.012 0-0.659-0.53-1.193-1.187-1.2h-7.521c-0.658 0.007-1.188 0.541-1.188 1.2 0 0.004 0 0.008 0 0.013v-0.001c-0 0.003-0 0.007-0 0.011 0 0.659 0.53 1.193 1.187 1.2h7.521c0.658-0.007 1.188-0.541 1.188-1.2 0-0.004-0-0.008-0-0.012v0.001zM19.26 17.913h-7.52c-0.658-0.007-1.188-0.541-1.188-1.2 0-0.004 0-0.008 0-0.012v0.001c-0-0.004-0-0.008-0-0.012 0-0.659 0.53-1.193 1.187-1.2h7.521c0.658 0.007 1.188 0.541 1.188 1.2 0 0.004-0 0.008-0 0.013v-0.001c0 0.003 0 0.007 0 0.011 0 0.659-0.53 1.193-1.187 1.2h-0.001z"></path>
</svg>
