<!-- Generated by IcoMoon.io -->
<svg version="1.1" xmlns="http://www.w3.org/2000/svg" width="32" height="32" viewBox="0 0 32 32">
<title>download</title>
<path d="M22.5 25h-4.379l5.44-5.439c0.271-0.272 0.439-0.647 0.439-1.061s-0.168-0.789-0.439-1.061l0 0c-0.272-0.271-0.647-0.439-1.061-0.439s-0.789 0.168-1.061 0.439l-3.439 3.44v-13.379c0-0.828-0.672-1.5-1.5-1.5s-1.5 0.672-1.5 1.5v0 13.379l-3.439-3.44c-0.272-0.271-0.647-0.439-1.061-0.439s-0.789 0.168-1.061 0.439l0-0c-0.271 0.272-0.439 0.647-0.439 1.061s0.168 0.789 0.439 1.061l5.44 5.439h-4.379c-0.828 0-1.5 0.672-1.5 1.5s0.672 1.5 1.5 1.5v0h12c0.828 0 1.5-0.672 1.5-1.5s-0.672-1.5-1.5-1.5v0"></path>
</svg>
