<!-- Generated by IcoMoon.io -->
<svg version="1.1" xmlns="http://www.w3.org/2000/svg" width="36" height="32" viewBox="0 0 36 32">
<title>euro</title>
<path d="M20.685 27.227c-4.464 0-8-2.343-9.724-6.011h11.757v-3.801h-12.818c-0.088-0.442-0.088-0.928-0.088-1.414 0-0.442 0-0.884 0.044-1.326h12.862v-3.801h-11.845c1.724-3.713 5.348-6.099 9.812-6.099 4.376 0 7.823 2.343 9.503 5.967h5.348c-1.945-6.409-7.646-10.74-14.807-10.74-7.337 0-13.171 4.42-15.205 10.873h-5.525v3.801h4.818c-0.044 0.442-0.044 0.884-0.044 1.326 0 0.486 0 0.972 0.044 1.414h-4.818v3.801h5.569c2.033 6.409 7.823 10.785 15.16 10.785 7.16 0 12.862-4.331 14.807-10.74h-5.348c-1.679 3.624-5.127 5.967-9.503 5.967z"></path>
</svg>
