<!-- Generated by IcoMoon.io -->
<svg version="1.1" xmlns="http://www.w3.org/2000/svg" width="32" height="32" viewBox="0 0 32 32">
<title>exclamation-circle</title>
<path d="M18 22c-0 1.105-0.896 2-2.001 2s-2.001-0.896-2.001-2c0-0 0-0 0-0.001v0c0-1.105 0.896-2 2.001-2s2.001 0.896 2.001 2c0 0 0 0 0 0.001v-0M14.5 17.5v-9c0-0.828 0.672-1.5 1.5-1.5s1.5 0.672 1.5 1.5v0 9c0 0.828-0.672 1.5-1.5 1.5s-1.5-0.672-1.5-1.5v0M16 27c-6.065 0-11-4.935-11-11s4.935-11 11-11 11 4.935 11 11-4.935 11-11 11M16 2c-7.732 0-14 6.268-14 14s6.268 14 14 14 14-6.268 14-14-6.268-14-14-14"></path>
</svg>
