<!-- Generated by IcoMoon.io -->
<svg version="1.1" xmlns="http://www.w3.org/2000/svg" width="32" height="32" viewBox="0 0 32 32">
<title>eye-closed</title>
<path d="M23.577 11.68l2.046-2.046c1.789 1.57 3.204 3.523 4.122 5.733l0.038 0.103 0.217 0.53-0.217 0.53c-2.326 5.685-7.71 9.47-13.783 9.47-1.97 0-3.868-0.398-5.612-1.13l2.234-2.235c1.078 0.332 2.213 0.508 3.378 0.508 4.656 0 8.839-2.814 10.837-7.143-0.795-1.707-1.895-3.147-3.243-4.306l-0.017-0.014zM18.945 9.24c-0.881-0.243-1.892-0.382-2.936-0.382-0.003 0-0.006 0-0.010 0h0.001c-4.656 0-8.839 2.814-10.837 7.143 0.74 1.589 1.738 2.937 2.954 4.050l0.010 0.009-2.044 2.044c-1.648-1.521-2.959-3.38-3.828-5.47l-0.038-0.103-0.217-0.531 0.217-0.53c2.326-5.685 7.71-9.47 13.783-9.47 1.822 0 3.581 0.34 5.215 0.97l-2.27 2.27zM15.315 19.942l4.627-4.627c0.038 0.206 0.059 0.443 0.059 0.685 0 2.209-1.791 4-4 4-0.242 0-0.479-0.021-0.709-0.063l0.024 0.004zM12.005 16.182c-0.003-0.054-0.004-0.118-0.004-0.182 0-2.209 1.791-4 4-4 0.064 0 0.128 0.002 0.191 0.005l-0.009-0-4.179 4.178zM4.775 25.532l21.040-21.039c0.178-0.168 0.419-0.271 0.684-0.271 0.552 0 1 0.448 1 1 0 0.265-0.103 0.506-0.271 0.685l0-0-21.038 21.038c-0.18 0.174-0.425 0.281-0.695 0.281-0.552 0-1-0.448-1-1 0-0.27 0.107-0.515 0.281-0.695l-0 0z"></path>
</svg>
