<!-- Generated by IcoMoon.io -->
<svg version="1.1" xmlns="http://www.w3.org/2000/svg" width="32" height="32" viewBox="0 0 32 32">
<title>fancyback</title>
<path d="M10.061 26.561l-7.061-7.061 7.061-7.060c0.271-0.272 0.646-0.441 1.060-0.441s0.79 0.169 1.060 0.441l0 0c0.271 0.271 0.439 0.646 0.439 1.060s-0.168 0.789-0.439 1.060l-3.439 3.439h13.379c1.654 0 3-1.345 3-3 0-1.654-1.346-3-3-3h-2.5c-0.828 0-1.5-0.672-1.5-1.5s0.672-1.5 1.5-1.5v0h2.5c3.308 0 6 2.692 6 6 0 3.309-2.692 6-6 6h-13.379l3.439 3.44c0.283 0.273 0.458 0.656 0.458 1.079 0 0.828-0.672 1.5-1.5 1.5-0.423 0-0.806-0.175-1.079-0.457l-0-0z"></path>
</svg>
