<!-- Generated by IcoMoon.io -->
<svg version="1.1" xmlns="http://www.w3.org/2000/svg" width="32" height="32" viewBox="0 0 32 32">
<title>fax</title>
<path d="M27 18.625c0-0.542-0.458-1-1-1h-0.5v1.875c0 0.828-0.672 1.5-1.5 1.5v0h-16c-0.828 0-1.5-0.672-1.5-1.5v0-1.875h-0.5c-0.542 0-1 0.458-1 1v7c0 0.542 0.458 1 1 1h20c0.542 0 1-0.458 1-1v-7zM9.5 18h13v-13h-13v13zM30 18.625v7c0 2.2-1.8 4-4 4h-20c-2.2 0-4-1.8-4-4v-7c0-2.2 1.8-4 4-4h0.5v-11.125c0-0.828 0.672-1.5 1.5-1.5v0h16c0.828 0 1.5 0.672 1.5 1.5v0 11.125h0.5c2.2 0 4 1.8 4 4zM8.219 22.219c-0.012-0-0.025-0-0.039-0-0.828 0-1.5 0.672-1.5 1.5s0.672 1.5 1.5 1.5c0.013 0 0.027-0 0.040-0.001l-0.002 0c0.812-0.021 1.462-0.685 1.462-1.5s-0.649-1.478-1.459-1.499l-0.002-0zM19.5 12.313h-7c-0.012-0-0.025-0.001-0.039-0.001-0.828 0-1.5 0.672-1.5 1.5s0.672 1.5 1.5 1.5c0.014 0 0.027-0 0.041-0.001l-0.002 0h7c0.012 0 0.025 0.001 0.039 0.001 0.828 0 1.5-0.672 1.5-1.5s-0.672-1.5-1.5-1.5c-0.014 0-0.027 0-0.041 0.001l0.002-0zM21 9.125c0 0.828-0.672 1.5-1.5 1.5v0h-7c-0.828 0-1.5-0.672-1.5-1.5s0.672-1.5 1.5-1.5v0h7c0.828 0 1.5 0.672 1.5 1.5v0z"></path>
</svg>
