<!-- Generated by IcoMoon.io -->
<svg version="1.1" xmlns="http://www.w3.org/2000/svg" width="32" height="32" viewBox="0 0 32 32">
<title>filter</title>
<path d="M26.5 8h-20c-0.828 0-1.5 0.672-1.5 1.5s0.672 1.5 1.5 1.5v0h20c0.828 0 1.5-0.672 1.5-1.5s-0.672-1.5-1.5-1.5v0M22.5 15h-12c-0.828 0-1.5 0.672-1.5 1.5s0.672 1.5 1.5 1.5v0h12c0.828 0 1.5-0.672 1.5-1.5s-0.672-1.5-1.5-1.5v0M20 23.5c0 0.828-0.672 1.5-1.5 1.5v0h-4c-0.828 0-1.5-0.672-1.5-1.5s0.672-1.5 1.5-1.5v0h4c0.828 0 1.5 0.672 1.5 1.5v0"></path>
</svg>
