<!-- Generated by IcoMoon.io -->
<svg version="1.1" xmlns="http://www.w3.org/2000/svg" width="241" height="32" viewBox="0 0 241 32">
<title>gentse-selectie-en</title>
<path d="M95.050 32h145.662v-32h-240.617v32h94.956zM95.050 1.899h143.763v28.202h-143.763v-28.202zM20.605 17.282c0 5.223-2.374 7.501-6.267 7.501-3.798 0-6.457-2.279-6.457-7.501v-2.184c0-5.507 2.659-7.691 6.457-7.691 3.608 0 5.697 1.994 6.172 5.507h-3.323c-0.285-1.519-1.234-2.564-2.944-2.564-1.994 0-3.039 1.329-3.039 4.558v2.374c0 3.229 1.044 4.558 3.039 4.558 1.899 0 2.754-1.234 2.944-3.229h-2.849v-2.944h6.172v1.614zM38.172 24.593h-3.418v-7.312h-5.887v7.312h-3.418v-16.997h3.418v6.742h5.887v-6.742h3.418v16.997zM54.030 10.54h-7.122v3.798h6.362v2.944h-6.362v4.463h7.122v2.944h-10.635v-17.092h10.54v2.944zM71.027 24.593h-2.849l-6.647-10.445v10.445h-3.228v-16.997h2.849l6.647 10.635v-10.635h3.228v16.997zM87.644 10.54h-4.653v14.053h-3.418v-14.053h-4.653v-2.944h12.724v2.944zM109.104 14.623c-2.279-0.57-3.323-1.139-3.323-2.469 0-1.139 0.855-1.899 2.374-1.899 1.709 0 2.564 0.57 3.323 1.709l2.564-1.804c-1.234-1.899-3.228-2.754-5.982-2.754-3.988 0-5.792 2.089-5.792 4.748 0 2.754 1.709 4.368 5.033 5.317 2.754 0.76 3.418 1.329 3.418 2.564 0 1.044-0.665 1.899-2.659 1.899-1.709 0-2.754-0.57-3.703-1.709l-2.659 1.804c1.519 1.994 3.608 2.754 6.552 2.754 3.988 0 5.887-2.184 5.887-4.938 0.095-3.039-1.519-4.368-5.033-5.223zM118.694 24.593h10.635v-2.944h-7.122v-4.463h6.362v-2.849h-6.362v-3.798h7.122v-2.944h-10.635zM137.021 7.596h-3.418v16.997h10.54v-2.944h-7.122zM147.941 24.593h10.54v-2.944h-7.122v-4.463h6.362v-2.849h-6.362v-3.798h7.122v-2.944h-10.54zM168.736 10.255c1.709 0 2.564 0.95 2.944 2.564h3.323c-0.57-3.703-2.849-5.507-6.172-5.507-3.798 0-6.457 2.279-6.457 7.501v2.374c0 5.223 2.659 7.501 6.457 7.501 3.513 0 5.602-1.709 6.172-5.507h-3.228c-0.38 1.709-1.234 2.564-2.944 2.564-1.994 0-3.039-1.424-3.039-4.558v-2.374c-0.095-3.229 0.95-4.558 2.944-4.558zM177.472 10.54h4.748v14.053h3.418v-14.053h4.653v-2.944h-12.819zM194.374 7.596h3.418v16.902h-3.418v-16.902zM209.282 7.407c-3.798 0-6.457 2.279-6.457 7.501v2.374c0 5.223 2.659 7.501 6.457 7.501s6.552-2.279 6.552-7.501v-2.374c-0.095-5.223-2.754-7.501-6.552-7.501zM212.32 17.282c0 3.229-1.044 4.558-3.039 4.558s-3.039-1.329-3.039-4.558v-2.374c0-3.229 1.044-4.558 3.039-4.558s3.039 1.329 3.039 4.558v2.374zM229.982 18.231l-6.552-10.635h-2.849v16.997h3.228v-10.54l6.647 10.54h2.849v-16.997h-3.323z"></path>
</svg>
