<!-- Generated by IcoMoon.io -->
<svg version="1.1" xmlns="http://www.w3.org/2000/svg" width="236" height="32" viewBox="0 0 236 32">
<title>gentse-selectie-nl</title>
<path d="M108.154 32h127.905v-32h-235.964v32h108.059zM108.154 1.899h126.006v28.202h-126.006v-28.202zM20.605 17.282c0 5.223-2.374 7.501-6.267 7.501-3.798 0-6.457-2.279-6.457-7.501v-2.184c0-5.507 2.659-7.691 6.457-7.691 3.608 0 5.697 1.994 6.172 5.507h-3.323c-0.285-1.519-1.234-2.564-2.944-2.564-1.994 0-3.039 1.329-3.039 4.558v2.374c0 3.229 1.044 4.558 3.039 4.558 1.899 0 2.754-1.234 2.944-3.229h-2.849v-2.944h6.172v1.614zM35.988 10.54h-7.122v3.798h6.362v2.944h-6.362v4.463h7.122v2.944h-10.635v-17.092h10.54v2.944zM52.985 24.593h-2.849l-6.647-10.445v10.445h-3.228v-16.997h2.849l6.647 10.635v-10.635h3.228v16.997zM69.602 10.54h-4.653v14.053h-3.418v-14.053h-4.653v-2.944h12.724v2.944zM79.193 24.783c-2.944 0-5.033-0.855-6.552-2.754l2.659-1.804c0.95 1.139 1.899 1.709 3.703 1.709 1.994 0 2.659-0.855 2.659-1.899 0-1.139-0.76-1.804-3.418-2.564-3.323-0.855-5.033-2.469-5.033-5.317 0-2.659 1.804-4.748 5.792-4.748 2.659 0 4.748 0.95 5.982 2.754l-2.564 1.804c-0.76-1.139-1.614-1.709-3.323-1.709-1.519 0-2.374 0.76-2.374 1.899 0 1.329 1.044 1.899 3.323 2.469 3.513 0.855 5.128 2.184 5.128 5.223-0.19 2.754-2.089 4.938-5.982 4.938zM100.083 10.54h-7.122v3.798h6.362v2.944h-6.362v4.463h7.122v2.944h-10.635v-17.092h10.54v2.944zM122.113 14.623c-2.279-0.57-3.323-1.139-3.323-2.469 0-1.139 0.855-1.899 2.374-1.899 1.709 0 2.564 0.57 3.323 1.709l2.564-1.804c-1.234-1.899-3.228-2.754-5.982-2.754-3.988 0-5.792 2.089-5.792 4.748 0 2.754 1.709 4.368 5.033 5.317 2.754 0.76 3.418 1.329 3.418 2.564 0 1.044-0.665 1.899-2.659 1.899-1.709 0-2.754-0.57-3.703-1.709l-2.659 1.804c1.519 1.994 3.608 2.754 6.552 2.754 3.988 0 5.887-2.184 5.887-4.938 0.095-3.039-1.424-4.368-5.033-5.223zM131.798 24.593h10.54v-2.944h-7.122v-4.463h6.362v-2.849h-6.362v-3.798h7.122v-2.944h-10.54zM150.125 7.596h-3.418v16.997h10.54v-2.944h-7.122zM160.95 24.593h10.635v-2.944h-7.122v-4.463h6.362v-2.849h-6.362v-3.798h7.122v-2.944h-10.635zM181.84 10.255c1.709 0 2.564 0.95 2.944 2.564h3.323c-0.57-3.703-2.849-5.507-6.172-5.507-3.798 0-6.457 2.279-6.457 7.501v2.374c0 5.223 2.659 7.501 6.457 7.501 3.513 0 5.602-1.709 6.172-5.507h-3.228c-0.38 1.709-1.234 2.564-2.944 2.564-1.994 0-3.039-1.424-3.039-4.558v-2.374c-0.095-3.229 0.95-4.558 2.944-4.558zM190.576 10.54h4.653v14.053h3.418v-14.053h4.653v-2.944h-12.724zM207.383 7.596h3.418v16.902h-3.418v-16.902zM216.404 24.593h10.54v-2.944h-7.122v-4.463h6.362v-2.849h-6.362v-3.798h7.122v-2.944h-10.54z"></path>
</svg>
