<!-- Generated by IcoMoon.io -->
<svg version="1.1" xmlns="http://www.w3.org/2000/svg" width="288" height="32" viewBox="0 0 288 32">
<title>gentse-selectie-fr</title>
<path d="M146.137 0h-146.042v32h287.525v-32h-141.484zM29.721 3.134h3.608l-2.564 3.134h-3.039l1.994-3.134zM14.148 24.783c-2.944 0-5.033-0.855-6.552-2.754l2.659-1.804c0.95 1.139 1.899 1.709 3.703 1.709 1.994 0 2.659-0.855 2.659-1.899 0-1.139-0.76-1.804-3.418-2.564-3.323-0.855-5.033-2.469-5.033-5.317 0-2.659 1.804-4.748 5.792-4.748 2.659 0 4.748 0.95 5.982 2.754l-2.564 1.804c-0.76-1.139-1.614-1.709-3.323-1.709-1.519 0-2.374 0.76-2.374 1.899 0 1.329 1.044 1.899 3.323 2.469 3.513 0.855 5.128 2.184 5.128 5.223-0.19 2.754-1.994 4.938-5.982 4.938zM35.039 10.54h-7.122v3.798h6.362v2.944h-6.362v4.463h7.122v2.944h-10.54v-17.092h10.54v2.944zM49.947 24.593h-10.54v-16.997h3.418v14.053h7.122v2.944zM64.285 10.54h-7.122v3.798h6.362v2.944h-6.362v4.463h7.122v2.944h-10.635v-17.092h10.54l0.095 2.944zM74.54 21.84c1.709 0 2.564-0.855 2.944-2.564h3.228c-0.57 3.798-2.659 5.507-6.172 5.507-3.798 0-6.457-2.279-6.457-7.501v-2.374c0-5.223 2.659-7.501 6.457-7.501 3.323 0 5.602 1.804 6.172 5.507h-3.323c-0.285-1.614-1.234-2.564-2.944-2.564-1.994 0-3.039 1.329-3.039 4.558v2.374c0.095 3.134 1.139 4.558 3.134 4.558zM96 10.54h-4.653v14.053h-3.418v-14.053h-4.653v-2.944h12.724v2.944zM103.501 24.593h-3.418v-16.997h3.418v16.997zM121.543 17.282c0 5.223-2.659 7.501-6.552 7.501-3.798 0-6.457-2.279-6.457-7.501v-2.374c0-5.223 2.659-7.501 6.457-7.501s6.552 2.279 6.552 7.501v2.374zM139.015 24.593h-2.849l-6.647-10.445v10.445h-3.228v-16.997h2.849l6.647 10.635v-10.635h3.228v16.997zM285.721 30.101h-137.685v-28.202h137.685v28.202zM114.991 10.255c-1.994 0-3.039 1.329-3.039 4.558v2.374c0 3.229 1.044 4.558 3.039 4.558s3.039-1.329 3.039-4.558v-2.374c0.095-3.229-1.044-4.558-3.039-4.558zM163.703 24.783c3.798 0 6.267-2.279 6.267-7.501v-1.519h-6.172v2.944h2.849c-0.19 1.994-0.95 3.229-2.944 3.229s-3.039-1.329-3.039-4.558v-2.374c0-3.229 1.044-4.558 3.039-4.558 1.709 0 2.659 1.044 2.944 2.564h3.323c-0.475-3.418-2.659-5.507-6.172-5.507-3.798 0-6.457 2.279-6.457 7.691v2.184c-0.095 5.128 2.564 7.407 6.362 7.407zM177.282 21.365h5.697l1.044 3.229h3.703l-5.982-16.997h-3.323l-5.887 16.902h3.703l1.044-3.134zM180.131 12.439l1.899 5.982h-3.798l1.899-5.982zM194.469 14.053l6.552 10.54h2.849v-16.997h-3.228v10.635l-6.647-10.635h-2.849v16.997h3.323v-10.54zM212.415 24.593h3.418v-14.053h4.653v-2.944h-12.724v2.944h4.653v14.053zM230.077 24.783c3.798 0 6.552-2.279 6.552-7.501v-2.374c0-5.223-2.659-7.501-6.552-7.501-3.798 0-6.457 2.279-6.457 7.501v2.374c0 5.223 2.659 7.501 6.457 7.501zM227.039 14.908c0-3.229 1.044-4.558 3.039-4.558s3.039 1.329 3.039 4.558v2.374c0 3.229-1.044 4.558-3.039 4.558s-3.039-1.329-3.039-4.558v-2.374zM241.662 7.596h3.418v16.902h-3.418v-16.902zM256.095 21.84c-1.709 0-2.754-0.57-3.703-1.709l-2.659 1.804c1.519 1.994 3.608 2.754 6.552 2.754 3.988 0 5.887-2.184 5.887-4.938 0-3.039-1.614-4.368-5.128-5.223-2.279-0.57-3.323-1.139-3.323-2.469 0-1.139 0.855-1.899 2.374-1.899 1.709 0 2.564 0.57 3.323 1.709l2.564-1.804c-1.234-1.899-3.228-2.754-5.982-2.754-3.988 0-5.792 2.089-5.792 4.748 0 2.754 1.709 4.368 5.033 5.317 2.754 0.76 3.418 1.329 3.418 2.564 0.095 1.044-0.57 1.899-2.564 1.899zM277.175 21.65h-7.122v-4.463h6.457v-2.849h-6.457v-3.798h7.122v-2.944h-10.54v16.997h10.54v-2.944z"></path>
</svg>
