<!-- Generated by IcoMoon.io -->
<svg version="1.1" xmlns="http://www.w3.org/2000/svg" width="32" height="32" viewBox="0 0 32 32">
<title>googleplus</title>
<path d="M23.606 12.572c-0.008 0.76-0.016 1.524-0.020 2.284-0.764 0.008-1.523 0.012-2.283 0.015v2.277c0.76 0.003 1.523 0.007 2.283 0.015 0.008 0.76 0.008 1.52 0.015 2.284 0.757 0 1.517-0.004 2.277 0 0.004-0.764 0.008-1.524 0.015-2.288l2.284-0.011v-2.276c-0.76-0.004-1.524-0.008-2.284-0.015l-0.015-2.284h-2.272M3.005 16.010c-0.069 3.338 2.23 6.523 5.393 7.562 2.978 1 6.641 0.252 8.623-2.3 1.448-1.787 1.777-4.17 1.62-6.396-2.551-0.023-5.102-0.015-7.65-0.011-0.004 0.908 0 1.814 0.004 2.722 1.528 0.043 3.056 0.023 4.583 0.054-0.386 1.322-1.264 2.551-2.597 3.028-2.574 1.135-5.858-0.347-6.668-3.047-0.978-2.586 0.622-5.706 3.265-6.458 1.638-0.577 3.327 0.072 4.728 0.924 0.702-0.669 1.364-1.352 1.998-2.059l0.030-0.034c-1.592-1.333-3.64-2.15-5.744-1.97-4.129 0.049-7.741 3.86-7.585 7.985"></path>
</svg>
