<!-- Generated by IcoMoon.io -->
<svg version="1.1" xmlns="http://www.w3.org/2000/svg" width="32" height="32" viewBox="0 0 32 32">
<title>heart</title>
<path d="M11.617 7c-1.462 0-2.883 0.597-4 1.681-1.017 0.963-1.617 2.516-1.617 4.167v0.274c0 1.696 0.976 3.547 2.902 5.502 1.813 1.809 4.374 3.558 7.606 5.192 4.757-2.44 7.257-4.631 8.522-6.051 1.315-1.534 1.962-3.009 1.962-4.491v-0.213c0.076-1.718-0.493-3.232-1.6-4.332l-0.173-0.208c-0.146-0.21-0.382-0.366-0.821-0.645l-0.17-0.108c-0.793-0.509-1.743-0.768-2.821-0.768-1.423 0-2.791 0.564-3.852 1.591l-1.068 1.031-1.043-1.058c-0.596-0.604-1.252-0.94-2.043-1.304-0.546-0.184-1.068-0.26-1.783-0.26zM16.512 27.18l-0.826-0.42c0.043 0.016-0.034-0.022-0.111-0.061l-0.123-0.055c-3.654-1.82-6.574-3.807-8.678-5.906-2.507-2.545-3.774-5.104-3.774-7.616v-0.274c0-2.495 0.926-4.804 2.54-6.333 1.668-1.618 3.83-2.515 6.077-2.515 1.076 0 1.952 0.139 2.84 0.451l0.127 0.052c0.633 0.29 1.289 0.609 1.934 1.060 1.358-0.976 3.055-1.561 4.888-1.563h0c1.66 0 3.156 0.418 4.443 1.243l0.16 0.102c0.52 0.331 1.106 0.704 1.588 1.346 1.655 1.695 2.504 3.975 2.394 6.437v0.146c0 2.199-0.908 4.373-2.702 6.464-2.15 2.414-5.418 4.733-9.735 6.912l-1.042 0.53z"></path>
</svg>
