<!-- Generated by IcoMoon.io -->
<svg version="1.1" xmlns="http://www.w3.org/2000/svg" width="32" height="32" viewBox="0 0 32 32">
<title>home</title>
<path d="M18.207 19.6c0 0.83-0.675 1.506-1.506 1.506-0.803-0.037-1.441-0.697-1.441-1.506s0.637-1.47 1.437-1.506l0.003-0c0.83 0 1.506 0.677 1.506 1.506zM16.7 24.105c2.488-0.003 4.504-2.019 4.506-4.507v-0c-0.003-2.487-2.019-4.503-4.506-4.505h-0c-2.487 0.003-4.503 2.018-4.506 4.505v0c0.002 2.488 2.018 4.505 4.506 4.508h0zM22.032 27.098h-10.664l-2.188-12.948c-0.027-0.139-0.068-0.263-0.124-0.379l0.004 0.009 7.44-7.192 7.743 7.485c-0.006 0.026-0.017 0.050-0.021 0.078l-2.19 12.95zM17.542 3.421c-0.27-0.261-0.637-0.421-1.043-0.421s-0.773 0.161-1.043 0.422l0-0-12 11.6c-0.296 0.275-0.481 0.666-0.481 1.101 0 0.828 0.672 1.5 1.5 1.5 0.417 0 0.794-0.17 1.066-0.445l0-0 0.95-0.919 2.128 12.592c0.124 0.714 0.739 1.25 1.479 1.25 0 0 0.001 0 0.001 0h13.2c0.74 0 1.355-0.536 1.478-1.241l0.001-0.009 2.072-12.256 0.607 0.585c0.29 0.281 0.667 0.421 1.042 0.421 0.828-0 1.5-0.672 1.5-1.5 0-0.423-0.175-0.805-0.457-1.078l-0-0-12-11.6z"></path>
</svg>
