<!-- Generated by IcoMoon.io -->
<svg version="1.1" xmlns="http://www.w3.org/2000/svg" width="32" height="32" viewBox="0 0 32 32">
<title>image</title>
<path d="M7.5 5h18c2.485 0 4.5 2.015 4.5 4.5v0 14c0 2.485-2.015 4.5-4.5 4.5v0h-18c-2.485 0-4.5-2.015-4.5-4.5v0-14c0-2.485 2.015-4.5 4.5-4.5v0zM7.5 8c-0.828 0-1.5 0.672-1.5 1.5v0 14c0 0.828 0.672 1.5 1.5 1.5v0h18c0.828 0 1.5-0.672 1.5-1.5v0-14c0-0.828-0.672-1.5-1.5-1.5v0h-18zM10.075 21.123c-0 0-0 0-0 0-0.552 0-1-0.448-1-1 0-0.144 0.030-0.28 0.085-0.403l-0.003 0.006 3.023-6.976c0.158-0.358 0.509-0.603 0.918-0.603 0.357 0 0.671 0.188 0.848 0.47l0.002 0.004 3.528 5.703c0.179 0.286 0.492 0.474 0.849 0.474 0.162 0 0.314-0.038 0.449-0.107l-0.006 0.003 2.631-1.299c0.129-0.065 0.281-0.103 0.442-0.103 0.379 0 0.708 0.211 0.878 0.521l0.003 0.005 0.985 1.832c0.075 0.137 0.119 0.3 0.119 0.473 0 0.552-0.447 0.999-0.999 1h-12.754zM19.669 11.63c0.328-0.32 0.718-0.48 1.169-0.48 0.468 0 0.86 0.16 1.182 0.48 0.32 0.32 0.48 0.714 0.48 1.182 0 0.45-0.16 0.84-0.48 1.169-0.29 0.304-0.698 0.493-1.15 0.493-0.011 0-0.023-0-0.034-0l0.002 0c-0.451 0-0.841-0.164-1.17-0.493-0.303-0.291-0.492-0.7-0.492-1.153 0-0.006 0-0.012 0-0.018v0.001c0-0.467 0.164-0.86 0.493-1.181z"></path>
</svg>
