<!-- Generated by IcoMoon.io -->
<svg version="1.1" xmlns="http://www.w3.org/2000/svg" width="189" height="32" viewBox="0 0 189 32">
<title>in-ghents-nl</title>
<path d="M12.059 24.593h-3.418v-16.997h3.418v16.997zM30.386 7.596v16.902h-2.849l-6.647-10.445v10.445h-3.229v-16.902h2.849l6.647 10.635v-10.635h3.229zM47.193 14.338h5.887v-6.742h3.418v16.902h-3.418v-7.312h-5.887v7.312h-3.418v-16.902h3.418v6.742zM72.356 7.596v2.944h-7.122v3.798h6.362v2.944h-6.362v4.463h7.122v2.944h-10.54v-17.092h10.54zM88.024 7.596v2.944h-4.653v14.053h-3.418v-14.053h-4.653v-2.944h12.724zM96 0h-95.905v32h188.961v-32h-93.056zM94.101 30.101h-92.107v-28.202h92.107v28.202zM115.561 17.282c0 5.223-2.374 7.501-6.267 7.501-3.798 0-6.457-2.279-6.457-7.501v-2.184c0-5.507 2.659-7.691 6.457-7.691 3.608 0 5.697 1.994 6.172 5.507h-3.323c-0.285-1.519-1.234-2.564-2.944-2.564-1.994 0-3.039 1.329-3.039 4.558v2.374c0 3.229 1.044 4.558 3.039 4.558 1.899 0 2.754-1.234 2.944-3.229h-2.849v-2.944h6.172l0.095 1.614zM130.944 10.54h-7.122v3.798h6.362v2.944h-6.362v4.463h7.122v2.944h-10.54v-17.092h10.54v2.944zM147.941 24.593h-2.849l-6.647-10.445v10.445h-3.228v-16.997h2.849l6.647 10.635v-10.635h3.228v16.997zM164.558 10.54h-4.653v14.053h-3.418v-14.053h-4.653v-2.944h12.724v2.944zM174.148 24.783c-2.944 0-5.033-0.855-6.552-2.754l2.659-1.804c0.95 1.139 1.899 1.709 3.703 1.709 1.994 0 2.659-0.855 2.659-1.899 0-1.139-0.76-1.804-3.418-2.564-3.323-0.855-5.033-2.469-5.033-5.317 0-2.659 1.804-4.748 5.792-4.748 2.659 0 4.748 0.95 5.982 2.754l-2.564 1.804c-0.76-1.139-1.614-1.709-3.323-1.709-1.519 0-2.374 0.76-2.374 1.899 0 1.329 1.044 1.899 3.323 2.469 3.513 0.855 5.128 2.184 5.128 5.223-0.19 2.754-2.089 4.938-5.982 4.938z"></path>
</svg>
