<!-- Generated by IcoMoon.io -->
<svg version="1.1" xmlns="http://www.w3.org/2000/svg" width="144" height="32" viewBox="0 0 144 32">
<title>in-ghents-fr</title>
<path d="M103.691 21.84c1.994 0 3.039-1.329 3.039-4.558v-2.374c0-3.229-1.044-4.558-3.039-4.558s-3.039 1.329-3.039 4.558v2.374c0 3.229 1.044 4.558 3.039 4.558zM72.641 12.439l-1.899 5.982h3.798l-1.899-5.982zM43.11 0h-43.015v32h143.573v-32h-100.558zM43.11 30.101h-41.116v-28.202h41.021l0.095 28.202zM128.855 17.472c-3.323-0.855-5.033-2.469-5.033-5.317 0-2.659 1.804-4.748 5.792-4.748 2.659 0 4.748 0.95 5.982 2.754l-2.564 1.804c-0.76-1.139-1.614-1.709-3.323-1.709-1.519 0-2.374 0.76-2.374 1.899 0 1.329 1.044 1.899 3.323 2.469 3.513 0.855 5.128 2.184 5.128 5.223 0 2.754-1.899 4.938-5.887 4.938-2.944 0-5.033-0.855-6.552-2.754l2.659-1.804c0.95 1.139 1.899 1.709 3.703 1.709 1.994 0 2.659-0.855 2.659-1.899-0.095-1.234-0.76-1.899-3.513-2.564zM115.181 7.596h3.418v16.902h-3.418v-16.902zM97.234 14.908c0-5.223 2.659-7.501 6.457-7.501s6.552 2.279 6.552 7.501v2.374c0 5.223-2.659 7.501-6.552 7.501-3.798 0-6.457-2.279-6.457-7.501v-2.374zM81.282 7.596h12.724v2.944h-4.653v14.053h-3.418v-14.053h-4.653v-2.944zM70.932 7.596h3.323l5.887 16.902h-3.703l-1.044-3.229h-5.697l-1.044 3.229h-3.703l5.982-16.902zM51.656 7.596h6.077c3.893 0 6.362 1.804 6.362 5.412s-2.374 5.507-6.362 5.507h-2.659v5.982h-3.418v-16.902zM60.582 13.009c0-1.614-1.044-2.469-3.418-2.469h-2.089v5.128h2.089c2.374 0 3.418-0.855 3.418-2.659zM18.991 21.65h-7.122v-4.463h6.362v-2.849h-6.362v-3.798h7.122v-2.944h-10.54v16.997h10.54v-2.944zM26.588 14.053l6.552 10.54h2.944v-16.997h-3.323v10.635l-6.647-10.635h-2.849v16.997h3.323v-10.54z"></path>
</svg>
