<!-- Generated by IcoMoon.io -->
<svg version="1.1" xmlns="http://www.w3.org/2000/svg" width="231" height="32" viewBox="0 0 231 32">
<title>in-ghents-en</title>
<path d="M148.51 10.54h-2.089v5.128h2.089c2.374 0 3.418-0.855 3.418-2.659 0-1.614-1.044-2.469-3.418-2.469zM165.317 10.255c-1.994 0-3.039 1.329-3.039 4.558v2.374c0 3.229 1.044 4.558 3.039 4.558s3.039-1.329 3.039-4.558v-2.374c0.095-3.229-1.044-4.558-3.039-4.558zM118.789 0h-118.694v32h230.742v-32h-112.047zM116.89 30.101h-114.896v-28.202h114.896v28.202zM132.558 24.783c-2.944 0-5.033-0.855-6.552-2.754l2.659-1.804c0.95 1.139 1.899 1.709 3.703 1.709 1.994 0 2.659-0.855 2.659-1.899 0-1.139-0.76-1.804-3.418-2.564-3.323-0.855-5.033-2.469-5.033-5.317 0-2.659 1.804-4.748 5.792-4.748 2.659 0 4.748 0.95 5.982 2.754l-2.564 1.804c-0.76-1.139-1.614-1.709-3.323-1.709-1.519 0-2.374 0.76-2.374 1.899 0 1.329 1.044 1.899 3.323 2.469 3.513 0.855 5.128 2.184 5.128 5.223-0.095 2.754-1.994 4.938-5.982 4.938zM148.985 18.611h-2.659v5.982h-3.418v-16.997h6.077c3.893 0 6.362 1.804 6.362 5.412s-2.374 5.602-6.362 5.602zM171.869 17.282c0 5.223-2.659 7.501-6.552 7.501-3.798 0-6.457-2.279-6.457-7.501v-2.374c0-5.223 2.659-7.501 6.457-7.501s6.552 2.279 6.552 7.501v2.374zM186.398 24.593l-4.368-7.122-1.994 2.659v4.463h-3.418v-16.997h3.418v7.312l5.317-7.312h4.083l-5.223 6.837 6.172 10.065-3.988 0.095zM204.914 10.54h-7.122v3.798h6.362v2.944h-6.362v4.463h7.122v2.944h-10.54v-17.092h10.54v2.944zM222.006 24.593h-2.849l-6.647-10.445v10.445h-3.228v-16.997h2.849l6.647 10.635v-10.635h3.228v16.997zM20.985 17.187v-2.184c0-5.412-2.659-7.407-6.552-7.407h-5.982v16.902h5.982c3.798 0.095 6.552-1.899 6.552-7.312zM11.869 10.54h2.564c2.279 0 3.039 1.519 3.039 4.463v2.184c0 2.944-0.76 4.463-3.039 4.463h-2.564v-11.11zM25.923 7.596h3.418v16.902h-3.418v-16.902zM37.887 21.365h5.697l1.044 3.229h3.703l-5.982-16.997h-3.323l-5.887 16.902h3.703l1.044-3.134zM40.736 12.439l1.899 5.982h-3.798l1.899-5.982zM62.291 21.65h-7.122v-14.053h-3.418v16.997h10.54v-2.944zM76.629 21.65h-7.122v-4.463h6.362v-2.849h-6.362v-3.798h7.122v-2.944h-10.54v16.997h10.54v-2.944zM86.979 24.783c3.513 0 5.602-1.709 6.172-5.507h-3.228c-0.38 1.709-1.234 2.564-2.944 2.564-1.994 0-3.039-1.424-3.039-4.558v-2.374c0-3.229 1.044-4.558 3.039-4.558 1.709 0 2.564 0.95 2.944 2.564h3.323c-0.57-3.703-2.849-5.507-6.172-5.507-3.798 0-6.457 2.279-6.457 7.501v2.374c-0.19 5.223 2.469 7.501 6.362 7.501zM100.368 24.593h3.418v-14.053h4.653v-2.944h-12.724v2.944h4.653v14.053z"></path>
</svg>
