<!-- Generated by IcoMoon.io -->
<svg version="1.1" xmlns="http://www.w3.org/2000/svg" width="32" height="32" viewBox="0 0 32 32">
<title>instagram</title>
<path d="M11.465 5.066c-1.171 0.053-1.97 0.24-2.67 0.512-0.762 0.291-1.412 0.723-1.947 1.267l-0.001 0.001c-0.546 0.536-0.978 1.186-1.258 1.911l-0.012 0.037c-0.271 0.7-0.457 1.5-0.51 2.67-0.054 1.175-0.067 1.549-0.067 4.536 0 2.988 0.013 3.362 0.067 4.535 0.053 1.171 0.239 1.97 0.51 2.67 0.292 0.763 0.724 1.413 1.269 1.948l0.001 0.001c0.536 0.545 1.186 0.977 1.911 1.256l0.037 0.012c0.7 0.273 1.499 0.458 2.67 0.512 1.173 0.053 1.548 0.066 4.535 0.066s3.362-0.013 4.535-0.066c1.171-0.054 1.97-0.24 2.67-0.512 0.763-0.291 1.413-0.723 1.948-1.267l0.001-0.001c0.546-0.536 0.977-1.186 1.257-1.912l0.012-0.037c0.271-0.7 0.458-1.499 0.511-2.67 0.053-1.173 0.066-1.547 0.066-4.535s-0.013-3.362-0.066-4.535c-0.053-1.171-0.24-1.97-0.511-2.67-0.292-0.763-0.724-1.413-1.269-1.948l-0.001-0.001c-0.536-0.545-1.185-0.976-1.91-1.256l-0.037-0.013c-0.7-0.273-1.5-0.459-2.67-0.512-1.175-0.053-1.549-0.066-4.536-0.066s-3.362 0.013-4.535 0.066M11.555 24.954c-1.072-0.050-1.655-0.228-2.042-0.379-0.514-0.2-0.88-0.438-1.265-0.823-0.356-0.346-0.637-0.769-0.815-1.242l-0.008-0.023c-0.15-0.387-0.33-0.97-0.379-2.042-0.053-1.16-0.064-1.508-0.064-4.445s0.011-3.285 0.064-4.445c0.050-1.072 0.228-1.655 0.379-2.043 0.2-0.513 0.438-0.88 0.823-1.264 0.346-0.356 0.769-0.637 1.242-0.815l0.023-0.008c0.387-0.15 0.97-0.33 2.042-0.379 1.16-0.053 1.508-0.064 4.445-0.064s3.285 0.011 4.445 0.064c1.072 0.050 1.655 0.228 2.043 0.379 0.513 0.2 0.88 0.438 1.264 0.823 0.385 0.385 0.623 0.75 0.823 1.264 0.15 0.388 0.33 0.97 0.38 2.043 0.052 1.16 0.063 1.508 0.063 4.445s-0.011 3.285-0.064 4.445c-0.049 1.072-0.228 1.655-0.379 2.042-0.2 0.514-0.438 0.88-0.823 1.265-0.346 0.356-0.768 0.637-1.241 0.815l-0.023 0.008c-0.388 0.151-0.97 0.33-2.043 0.379-1.16 0.053-1.508 0.064-4.445 0.064s-3.285-0.011-4.445-0.064M20.552 10.128c0 0.729 0.591 1.32 1.32 1.32s1.32-0.591 1.32-1.32v0c0-0.729-0.591-1.32-1.32-1.32s-1.32 0.591-1.32 1.32v0M10.352 16c0 3.119 2.529 5.648 5.648 5.648s5.648-2.529 5.648-5.648v0c0-3.12-2.529-5.649-5.649-5.649s-5.649 2.529-5.649 5.649v0M12.333 16c0-2.025 1.642-3.667 3.667-3.667s3.667 1.642 3.667 3.667v0c0 2.025-1.642 3.667-3.667 3.667s-3.667-1.642-3.667-3.667v0"></path>
</svg>
