<!-- Generated by IcoMoon.io -->
<svg version="1.1" xmlns="http://www.w3.org/2000/svg" width="32" height="32" viewBox="0 0 32 32">
<title>lightning</title>
<path d="M11.27 15h2.23c0.467 0 0.909 0.218 1.191 0.59 0.284 0.371 0.38 0.853 0.256 1.305l-1.394 5.113 6.507-7.008h-3.56c-0.828-0-1.5-0.672-1.5-1.5 0-0.31 0.094-0.598 0.255-0.837l-0.003 0.005 4.445-6.668h-6.927l-1.5 9zM10.5 29c-0.828-0.002-1.499-0.674-1.499-1.503 0-0.139 0.019-0.274 0.055-0.403l-0.002 0.011 2.483-9.105h-2.036c-0.828-0.001-1.499-0.673-1.499-1.501 0-0.087 0.007-0.172 0.022-0.255l-0.001 0.009 2-12c0.123-0.715 0.738-1.253 1.479-1.253h11c0.828 0.001 1.499 0.673 1.499 1.501 0 0.31-0.094 0.597-0.254 0.836l0.003-0.005-4.445 6.668h4.197c0 0 0.001 0 0.001 0 0.828 0 1.5 0.672 1.5 1.5 0 0.395-0.153 0.754-0.402 1.022l0.001-0.001-13 14c-0.275 0.295-0.665 0.479-1.099 0.479-0 0-0.001 0-0.001 0h0z"></path>
</svg>
