<!-- Generated by IcoMoon.io -->
<svg version="1.1" xmlns="http://www.w3.org/2000/svg" width="32" height="32" viewBox="0 0 32 32">
<title>linkedin</title>
<path d="M20.57 24v-5.414c0-1.362-0.496-2.29-1.736-2.29-0.949 0-1.513 0.627-1.76 1.23-0.091 0.217-0.114 0.52-0.114 0.82v5.654h-3.429s0.045-9.17 0-10.12h3.429v1.435c0.456-0.69 1.27-1.673 3.090-1.673 2.258 0 3.95 1.445 3.95 4.555v5.803h-3.429zM9.92 12.497h-0.023c-1.15 0-1.897-0.777-1.897-1.75 0-0.992 0.768-1.747 1.94-1.747 1.174 0 1.897 0.755 1.919 1.747 0 0.974-0.745 1.75-1.94 1.75zM11.633 23.999h-3.43v-10.119h3.43v10.12z"></path>
</svg>
