<svg xmlns="http://www.w3.org/2000/svg" viewBox="0 0 30 30"><path d="M14.2 29.77c.69.5 1.35.1 2.01-.34 4.06-2.71 7.75-5.77 10.13-10.16A12.9 12.9 0 0 0 15.01.03C7.86-.51.65 6.81 2.24 15.09 3.6 22.18 8.93 25.94 14.2 29.77ZM8.77 5.9c3.01-2.64 6.47-3.12 10.17-1.58 3.92 1.62 5.69 4.7 5.83 9.34-.04 3.48-5.32 10.73-9.08 11.94-.36.11-.91.16-1.17-.04-3.52-2.64-7.11-5.26-8.55-9.71-1.26-3.9-.22-7.28 2.8-9.94Z"/><path class="cls-2" d="M14.98 17.69c2.46.05 4.74-2.02 4.79-4.34.05-2.33-2.24-4.58-4.66-4.58a4.52 4.52 0 0 0-4.54 4.6 4.4 4.4 0 0 0 4.41 4.32Zm.26-5.52c.5.03.9.44.97 1.01.09.83-.48 1-1.11 1.09-.56-.07-.95-.31-.93-.95.02-.71.39-1.19 1.08-1.16Z"/></svg>