<!-- Generated by IcoMoon.io -->
<svg version="1.1" xmlns="http://www.w3.org/2000/svg" width="32" height="32" viewBox="0 0 32 32">
<title>lock-open</title>
<path d="M21.56 17.44c0.271 0.271 0.439 0.646 0.439 1.060s-0.168 0.789-0.439 1.060l-6 6c-0.271 0.272-0.646 0.44-1.060 0.44s-0.789-0.168-1.060-0.44l-3-3c-0.294-0.275-0.477-0.665-0.477-1.097 0-0.828 0.672-1.5 1.5-1.5 0.433 0 0.823 0.183 1.097 0.477l0.001 0.001 1.94 1.938 4.94-4.939c0.271-0.271 0.646-0.439 1.060-0.439s0.789 0.168 1.060 0.439l-0-0zM25 25.5c0 1.084-0.916 2-2 2h-14c-1.085 0-2-0.916-2-2v-8c0-1.084 0.915-2 2-2h14c1.084 0 2 0.916 2 2v8zM23 12.5h-11.5v-3c0-2.48 2.017-4.5 4.5-4.5s4.5 2.019 4.5 4.5c0 0.828 0.672 1.5 1.5 1.5s1.5-0.672 1.5-1.5v0c0-4.135-3.364-7.5-7.5-7.5s-7.5 3.365-7.5 7.5v3.050c-2.514 0.256-4.5 2.37-4.5 4.95v8c0 2.75 2.25 5 5 5h14c2.75 0 5-2.25 5-5v-8c0-2.75-2.25-5-5-5z"></path>
</svg>
