<!-- Generated by IcoMoon.io -->
<svg version="1.1" xmlns="http://www.w3.org/2000/svg" width="32" height="32" viewBox="0 0 32 32">
<title>lock-closed</title>
<path d="M23.5 12.551c2.514 0.256 4.5 2.37 4.5 4.949v8c0 2.75-2.25 5-5 5h-14c-2.75 0-5-2.25-5-5v-8c0-2.579 1.986-4.693 4.5-4.949v-3.051c0-4.136 3.364-7.5 7.5-7.5s7.5 3.364 7.5 7.5v3.051zM25 25.5v-8c0-1.084-0.916-2-2-2h-14c-1.084 0-2 0.916-2 2v8c0 1.084 0.916 2 2 2h14c1.084 0 2-0.916 2-2zM16 5c-2.484 0.003-4.497 2.016-4.5 4.5v3h9v-3c0-2.481-2.019-4.5-4.5-4.5zM16 18c0.828 0 1.5 0.672 1.5 1.5v0 4c0 0.828-0.672 1.5-1.5 1.5s-1.5-0.672-1.5-1.5v0-4c0-0.828 0.672-1.5 1.5-1.5v0z"></path>
</svg>
