<!-- Generated by IcoMoon.io -->
<svg version="1.1" xmlns="http://www.w3.org/2000/svg" width="32" height="32" viewBox="0 0 32 32">
<title>logout</title>
<path d="M10.374 7.436c0.188-0.128 0.42-0.204 0.67-0.204 0.663 0 1.2 0.537 1.2 1.2 0 0.413-0.208 0.777-0.526 0.993l-0.004 0.003c-2.253 1.527-3.714 4.076-3.714 6.966 0 0.002 0 0.005 0 0.007v-0c0 4.639 3.761 8.4 8.4 8.4s8.4-3.761 8.4-8.4c0-2.827-1.406-5.414-3.706-6.968-0.32-0.219-0.528-0.582-0.528-0.994 0-0.663 0.537-1.2 1.2-1.2 0.251 0 0.484 0.077 0.676 0.208l-0.004-0.003c2.889 1.966 4.762 5.238 4.762 8.949 0 0.003 0 0.006 0 0.008v-0c0 5.965-4.835 10.8-10.8 10.8s-10.8-4.835-10.8-10.8c0-3.638 1.814-6.97 4.774-8.964zM15.203 5.2c0-0.663 0.537-1.2 1.2-1.2s1.2 0.537 1.2 1.2v0 10c0 0.663-0.537 1.2-1.2 1.2s-1.2-0.537-1.2-1.2v0-10z"></path>
</svg>
