<svg xmlns="http://www.w3.org/2000/svg" viewBox="0 0 30 30"><path class="cls-1" d="M26.94.14c-4.91 1.13-9.8 2.42-14.76 3.24-2.34.39-2.75 1.41-2.69 3.42.11 3.73-.06 7.47.07 11.2.06 1.91-.11 2.7-2.42 2.13-2.61-.64-4.54.86-5.94 3.06-.99 1.56-.55 3.05.44 4.25 1.61 1.95 3.74 3.13 6.33 2.17 2.46-.9 4.3-2.42 4.15-5.46-.11-2.39-.02-4.79-.02-7.18q0-4.7 4.77-5.83c1.57-.37 3.13-.81 4.7-1.19 5.21-1.25 5.02-1.23 5.29 4.12.15 3.01-.41 4.07-3.71 3.74-3.38-.34-5.87 3.29-4.69 6.13.97 2.33 3.61 3.66 6.4 3.22a5 5 0 0 0 4.46-5.07c.06-3.26.01-6.51.01-9.77h.02c0-3.35-.02-6.71 0-10.06.01-1.67-.53-2.56-2.41-2.13ZM6.37 27.52c-1.72-.03-2.81-.99-2.81-2.62 0-1.68 1.19-2.45 2.9-2.43 1.74.02 2.58.97 2.95 2.51-.45 1.56-1.33 2.56-3.05 2.53ZM25.13 6.84c-3.9.8-7.78 1.76-11.66 2.66-.74.17-1.41.15-1.35-.84.07-1.15-.61-2.73 1.14-3.13 3.89-.88 7.83-1.52 11.71-2.42 1.72-.4 2.09.19 1.75 1.56.33 1.49-.34 1.92-1.6 2.18Zm-1.29 18.14c-1.46.05-2.83-.59-2.93-2.45-.11-1.98 1.34-2.27 2.81-2.58 1.49.21 2.92.71 2.99 2.46.07 1.77-1.42 2.52-2.87 2.57Z"/></svg>