<!-- Generated by IcoMoon.io -->
<svg version="1.1" xmlns="http://www.w3.org/2000/svg" width="32" height="32" viewBox="0 0 32 32">
<title>navigate</title>
<path d="M16 31.5c-8.56 0-15.5-6.94-15.5-15.5s6.94-15.5 15.5-15.5 15.5 6.94 15.5 15.5-6.94 15.5-15.5 15.5zM16 28.5c6.903 0 12.5-5.597 12.5-12.5s-5.597-12.5-12.5-12.5c-6.903 0-12.5 5.597-12.5 12.5s5.597 12.5 12.5 12.5zM12.213 14.367l3.030 0.832c0.514 0.141 0.917 0.543 1.058 1.057l0.832 3.029 2.46-7.379-7.379 2.46zM6.613 15.964c-1.442-0.397-1.497-2.421-0.078-2.894l14.972-4.991c1.183-0.395 2.308 0.731 1.914 1.914l-4.991 14.972c-0.473 1.419-2.497 1.365-2.893-0.077l-1.923-7.002-7.001-1.922z"></path>
</svg>
