<!-- Generated by IcoMoon.io -->
<svg version="1.1" xmlns="http://www.w3.org/2000/svg" width="32" height="32" viewBox="0 0 32 32">
<title>normalphone</title>
<path d="M25.149 22.434l-4.81-2.062c-0.165-0.073-0.357-0.115-0.56-0.115-0.575 0-1.070 0.343-1.292 0.835l-0.004 0.009-0.155 0.354c-2.045-0.654-3.166-1.42-4.75-2.88-1.473-1.572-2.328-2.94-2.987-4.969l0.357-0.153c0.504-0.218 0.851-0.712 0.851-1.286 0-0.2-0.042-0.391-0.118-0.563l0.004 0.009-2.080-4.77c-0.224-0.502-0.718-0.845-1.293-0.845-0.204 0-0.397 0.043-0.572 0.121l0.009-0.004-1.923 0.825c-0.59 0.253-0.907 0.883-0.808 1.604 0.827 5.98 2.32 9.603 5.268 12.525l0.777 0.77c2.947 2.923 6.34 4.323 12.372 5.143 0.087 0.012-1.19-0.182 0.26 0.018 0.626 0 1.133-0.306 1.358-0.818l0.831-1.908c0.073-0.163 0.115-0.354 0.115-0.555 0-0.574-0.346-1.067-0.841-1.282l-0.009-0.003"></path>
</svg>
