<!-- Generated by IcoMoon.io -->
<svg version="1.1" xmlns="http://www.w3.org/2000/svg" width="277" height="32" viewBox="0 0 277 32">
<title>outside-nl</title>
<path d="M34.279 0h-34.184v32h277.27v-32h-243.086zM17.187 20.226c-2.374 0-4.273-1.899-4.273-4.273s1.899-4.273 4.273-4.273 4.273 1.899 4.273 4.273-1.899 4.273-4.273 4.273zM17.947 22.979v3.988c0 0.38-0.38 0.76-0.76 0.76s-0.76-0.38-0.76-0.76v-3.988c0-0.38 0.38-0.76 0.76-0.76 0.475 0.095 0.76 0.38 0.76 0.76zM10.16 15.193c0.38 0 0.76 0.38 0.76 0.76s-0.38 0.76-0.76 0.76h-3.988c-0.38 0-0.76-0.38-0.76-0.76s0.38-0.76 0.76-0.76h3.988zM8.831 7.691c0.19-0.19 0.38-0.19 0.57-0.19s0.38 0.095 0.57 0.19l2.849 2.849c0.285 0.285 0.285 0.76 0 1.044s-0.76 0.285-1.044 0l-2.849-2.849c-0.38-0.285-0.38-0.76-0.095-1.045zM8.926 23.264l2.849-2.849c0.19-0.19 0.38-0.19 0.57-0.19v0c0.19 0 0.38 0.095 0.57 0.19 0.285 0.285 0.285 0.76 0 1.044l-2.849 2.849c-0.285 0.285-0.76 0.285-1.044 0-0.38-0.285-0.38-0.76-0.095-1.044zM16.427 8.926v-3.988c0-0.38 0.38-0.76 0.76-0.76s0.76 0.38 0.76 0.76v3.988c0 0.38-0.38 0.76-0.76 0.76s-0.76-0.285-0.76-0.76zM21.65 10.54l2.849-2.849c0.19-0.19 0.38-0.19 0.57-0.19s0.38 0.095 0.57 0.19c0.285 0.285 0.285 0.76 0 1.044l-2.849 2.849c-0.285 0.285-0.76 0.285-1.044 0-0.38-0.285-0.38-0.76-0.095-1.044zM21.65 20.415c0.19-0.19 0.38-0.19 0.57-0.19v0c0.19 0 0.38 0.095 0.57 0.19l2.849 2.849c0.285 0.285 0.285 0.76 0 1.044s-0.76 0.285-1.044 0l-2.849-2.849c-0.38-0.285-0.38-0.76-0.095-1.044zM24.214 16.712c-0.38 0-0.76-0.38-0.76-0.76s0.38-0.76 0.76-0.76h3.988c0.38 0 0.76 0.38 0.76 0.76s-0.38 0.76-0.76 0.76h-3.988zM275.466 30.101h-241.187v-28.202h241.187v28.202zM46.338 7.596c3.988 0 6.172 1.424 6.172 4.463 0 1.709-0.855 2.944-2.279 3.608 1.709 0.665 2.754 1.899 2.754 3.988 0 2.659-1.709 4.843-6.172 4.843h-6.172v-16.902h5.697zM44.154 14.338h2.279c1.899 0 2.659-0.76 2.659-1.899s-0.57-1.899-3.039-1.899h-1.899v3.798zM44.154 21.65h2.469c2.089 0 3.039-0.76 3.039-2.279 0-1.614-1.044-2.184-3.323-2.184h-2.184v4.463zM70.552 7.596v10.065c0 5.033-2.754 7.122-6.552 7.122s-6.552-2.089-6.552-7.027v-10.16h3.418v10.065c0 2.944 0.95 4.178 3.039 4.178s3.039-1.234 3.039-4.178v-10.065h3.608zM79.478 24.593h-3.418v-16.997h3.418v16.997zM96.285 7.596v2.944h-4.653v14.053h-3.418v-14.053h-4.653v-2.944h12.724zM110.718 7.596v2.944h-7.122v3.798h6.362v2.944h-6.362v4.463h7.122v2.944h-10.54v-17.092h10.54zM127.715 7.596v16.902h-2.849l-6.647-10.445v10.445h-3.228v-16.902h2.849l6.647 10.635v-10.635h3.228zM131.323 24.593l5.887-16.997h3.323l5.887 16.902h-3.703l-1.044-3.229h-5.697l-1.044 3.229h-3.608zM136.926 18.421h3.798l-1.899-5.982-1.899 5.982zM158.291 12.819c-0.285-1.614-1.234-2.564-2.944-2.564-1.994 0-3.039 1.329-3.039 4.558v2.374c0 3.134 1.044 4.558 3.039 4.558 1.709 0 2.564-0.855 2.944-2.564h3.228c-0.57 3.798-2.659 5.507-6.172 5.507-3.798 0-6.457-2.279-6.457-7.501v-2.374c0-5.223 2.659-7.501 6.457-7.501 3.323 0 5.602 1.804 6.172 5.507h-3.228zM176.902 7.596v2.944h-4.653v14.053h-3.418v-14.053h-4.653v-2.944h12.724zM184.404 24.593h-3.418v-16.997h3.418v16.997zM192.095 7.596l3.703 11.395 3.703-11.395h3.798l-5.887 16.902h-3.134l-5.982-16.902h3.798zM210.611 24.593h-3.418v-16.997h3.418v16.997zM227.418 7.596v2.944h-4.653v14.053h-3.418v-14.053h-4.653v-2.944h12.724zM241.852 7.596v2.944h-7.122v3.798h6.362v2.944h-6.362v4.463h7.122v2.944h-10.54v-17.092h10.54zM249.828 24.593h-3.418v-16.997h3.418v16.997zM266.635 7.596v2.944h-4.653v14.053h-3.418v-14.053h-4.653v-2.944h12.724z"></path>
</svg>
