<!-- Generated by IcoMoon.io -->
<svg version="1.1" xmlns="http://www.w3.org/2000/svg" width="166" height="32" viewBox="0 0 166 32">
<title>outside-en</title>
<path d="M34.279 0h-34.184v32h166.172v-32h-131.988zM17.187 20.226c-2.374 0-4.273-1.899-4.273-4.273s1.899-4.273 4.273-4.273 4.273 1.899 4.273 4.273-1.899 4.273-4.273 4.273zM17.947 22.979v3.988c0 0.38-0.38 0.76-0.76 0.76s-0.76-0.38-0.76-0.76v-3.988c0-0.38 0.38-0.76 0.76-0.76 0.475 0.095 0.76 0.38 0.76 0.76zM10.16 15.193c0.38 0 0.76 0.38 0.76 0.76s-0.38 0.76-0.76 0.76h-3.988c-0.38 0-0.76-0.38-0.76-0.76s0.38-0.76 0.76-0.76h3.988zM8.831 7.691c0.19-0.19 0.38-0.19 0.57-0.19s0.38 0.095 0.57 0.19l2.849 2.849c0.285 0.285 0.285 0.76 0 1.044s-0.76 0.285-1.044 0l-2.849-2.849c-0.38-0.285-0.38-0.76-0.095-1.045zM8.926 23.264l2.849-2.849c0.19-0.19 0.38-0.19 0.57-0.19v0c0.19 0 0.38 0.095 0.57 0.19 0.285 0.285 0.285 0.76 0 1.044l-2.849 2.849c-0.285 0.285-0.76 0.285-1.044 0-0.38-0.285-0.38-0.76-0.095-1.044zM16.427 8.926v-3.988c0-0.38 0.38-0.76 0.76-0.76s0.76 0.38 0.76 0.76v3.988c0 0.38-0.38 0.76-0.76 0.76s-0.76-0.285-0.76-0.76zM21.65 10.54l2.849-2.849c0.19-0.19 0.38-0.19 0.57-0.19s0.38 0.095 0.57 0.19c0.285 0.285 0.285 0.76 0 1.044l-2.849 2.849c-0.285 0.285-0.76 0.285-1.044 0-0.38-0.285-0.38-0.76-0.095-1.044zM21.65 20.415c0.19-0.19 0.38-0.19 0.57-0.19v0c0.19 0 0.38 0.095 0.57 0.19l2.849 2.849c0.285 0.285 0.285 0.76 0 1.044s-0.76 0.285-1.044 0l-2.849-2.849c-0.38-0.285-0.38-0.76-0.095-1.044zM24.214 16.712c-0.38 0-0.76-0.38-0.76-0.76s0.38-0.76 0.76-0.76h3.988c0.38 0 0.76 0.38 0.76 0.76s-0.38 0.76-0.76 0.76h-3.988zM164.368 30.101h-130.089v-28.202h130.089v28.202zM46.718 24.783c-3.798 0-6.457-2.279-6.457-7.501v-2.374c0-5.223 2.659-7.501 6.457-7.501s6.552 2.279 6.552 7.501v2.374c-0.095 5.223-2.754 7.501-6.552 7.501zM43.585 17.282c0 3.229 1.044 4.558 3.039 4.558s3.039-1.329 3.039-4.558v-2.374c0-3.229-1.044-4.558-3.039-4.558s-3.039 1.329-3.039 4.558v2.374zM70.932 7.596v10.065c0 5.033-2.754 7.122-6.552 7.122s-6.552-2.089-6.552-7.027v-10.16h3.418v10.065c0 2.944 0.95 4.178 3.039 4.178s3.039-1.234 3.039-4.178v-10.065h3.608zM87.549 7.596v2.944h-4.653v14.053h-3.418v-14.053h-4.653v-2.944h12.724zM91.347 24.593v-16.997h5.982c3.798 0 6.552 1.994 6.552 7.407v2.184c0 5.412-2.659 7.407-6.552 7.407h-5.982zM100.463 17.187v-2.184c0-2.944-0.76-4.463-3.039-4.463h-2.564v11.11h2.564c2.184 0 3.039-1.519 3.039-4.463zM114.611 24.783c-3.798 0-6.457-2.279-6.457-7.501v-2.374c0-5.223 2.659-7.501 6.457-7.501s6.552 2.279 6.552 7.501v2.374c-0.095 5.223-2.754 7.501-6.552 7.501zM111.573 17.282c0 3.229 1.044 4.558 3.039 4.558s3.039-1.329 3.039-4.558v-2.374c0-3.229-1.044-4.558-3.039-4.558s-3.039 1.329-3.039 4.558v2.374zM131.798 24.783c-3.798 0-6.457-2.279-6.457-7.501v-2.374c0-5.223 2.659-7.501 6.457-7.501s6.552 2.279 6.552 7.501v2.374c0 5.223-2.659 7.501-6.552 7.501zM128.76 17.282c0 3.229 1.044 4.558 3.039 4.558s3.039-1.329 3.039-4.558v-2.374c0-3.229-1.044-4.558-3.039-4.558s-3.039 1.329-3.039 4.558v2.374zM152.309 24.593l-3.039-6.647h-2.754v6.647h-3.418v-16.997h6.077c3.893 0 6.362 1.709 6.362 5.223 0 2.279-1.044 3.798-2.944 4.558l3.513 7.217h-3.798zM148.89 15.003c1.994 0 3.228-0.475 3.228-2.184 0-1.804-1.139-2.279-3.228-2.279h-2.279v4.463h2.279z"></path>
</svg>
