<!-- Generated by IcoMoon.io -->
<svg version="1.1" xmlns="http://www.w3.org/2000/svg" width="213" height="32" viewBox="0 0 213 32">
<title>outside-fr</title>
<path d="M34.279 0h-34.184v32h213.175v-32h-178.991zM17.187 20.226c-2.374 0-4.273-1.899-4.273-4.273s1.899-4.273 4.273-4.273 4.273 1.899 4.273 4.273-1.899 4.273-4.273 4.273zM17.947 22.979v3.988c0 0.38-0.38 0.76-0.76 0.76s-0.76-0.38-0.76-0.76v-3.988c0-0.38 0.38-0.76 0.76-0.76 0.475 0.095 0.76 0.38 0.76 0.76zM10.16 15.193c0.38 0 0.76 0.38 0.76 0.76s-0.38 0.76-0.76 0.76h-3.988c-0.38 0-0.76-0.38-0.76-0.76s0.38-0.76 0.76-0.76h3.988zM8.831 7.691c0.19-0.19 0.38-0.19 0.57-0.19s0.38 0.095 0.57 0.19l2.849 2.849c0.285 0.285 0.285 0.76 0 1.044s-0.76 0.285-1.044 0l-2.849-2.849c-0.38-0.285-0.38-0.76-0.095-1.045zM8.926 23.264l2.849-2.849c0.19-0.19 0.38-0.19 0.57-0.19s0.38 0.095 0.57 0.19c0.285 0.285 0.285 0.76 0 1.044l-2.849 2.849c-0.285 0.285-0.76 0.285-1.044 0-0.38-0.285-0.38-0.76-0.095-1.044zM16.427 8.926v-3.988c0-0.38 0.38-0.76 0.76-0.76s0.76 0.38 0.76 0.76v3.988c0 0.38-0.38 0.76-0.76 0.76s-0.76-0.285-0.76-0.76zM21.65 10.54l2.849-2.849c0.19-0.19 0.38-0.19 0.57-0.19s0.38 0.095 0.57 0.19c0.285 0.285 0.285 0.76 0 1.044l-2.849 2.849c-0.285 0.285-0.76 0.285-1.044 0-0.38-0.285-0.38-0.76-0.095-1.044zM21.65 20.415c0.19-0.19 0.38-0.19 0.57-0.19s0.38 0.095 0.57 0.19l2.849 2.849c0.285 0.285 0.285 0.76 0 1.044s-0.76 0.285-1.044 0l-2.849-2.849c-0.38-0.285-0.38-0.76-0.095-1.044zM24.214 16.712c-0.38 0-0.76-0.38-0.76-0.76s0.38-0.76 0.76-0.76h3.988c0.38 0 0.76 0.38 0.76 0.76s-0.38 0.76-0.76 0.76h-3.988zM211.371 30.101h-177.092v-28.202h177.092v28.202zM51.276 7.596v2.944h-7.122v3.798h6.362v2.944h-6.362v4.463h7.122v2.944h-10.54v-17.092h10.54zM68.368 7.596v16.902h-2.849l-6.647-10.445v10.445h-3.228v-16.902h2.849l6.647 10.635v-10.635h3.228zM85.175 18.611v5.982h-3.418v-16.997h6.077c3.893 0 6.362 1.804 6.362 5.412s-2.374 5.507-6.362 5.507l-2.659 0.095zM87.264 15.668c2.374 0 3.418-0.855 3.418-2.659 0-1.614-1.044-2.469-3.418-2.469h-2.184v5.128h2.184zM101.602 21.65h7.122v2.944h-10.54v-16.997h3.418v14.053zM123.062 7.596v2.944h-7.122v3.798h6.362v2.944h-6.362v4.463h7.122v2.944h-10.54v-17.092h10.54zM131.039 24.593h-3.418v-16.997h3.418v16.997zM149.27 7.596v16.902h-2.849l-6.647-10.445v10.445h-3.228v-16.902h2.849l6.647 10.635v-10.635h3.228zM160.95 24.593l5.887-16.997h3.323l5.887 16.902h-3.703l-1.044-3.229h-5.697l-1.044 3.229h-3.608v0.095zM166.552 18.421h3.798l-1.899-5.982-1.899 5.982zM183.169 24.593h-3.418v-16.997h3.418v16.997zM197.982 24.593l-3.039-6.647h-2.754v6.647h-3.418v-16.997h6.077c3.893 0 6.362 1.709 6.362 5.223 0 2.279-1.044 3.798-2.944 4.558l3.513 7.217h-3.798zM194.469 15.003c1.994 0 3.228-0.475 3.228-2.184 0-1.804-1.139-2.279-3.228-2.279h-2.279v4.463h2.279z"></path>
</svg>
