<svg width="56" height="40" fill="none" xmlns="http://www.w3.org/2000/svg"><g clip-path="url(#a)"><mask id="b" style="mask-type:alpha" maskUnits="userSpaceOnUse" x="0" y="0" width="57" height="40"><path d="M52.334 39.128H4.552c-2.013 0-3.666-1.609-3.666-3.586V4.472c0-1.978 1.653-3.6 3.666-3.6h47.782C54.347.872 56 2.494 56 4.472v31.07c0 1.977-1.653 3.586-3.666 3.586Z" fill="#fff"/></mask><g mask="url(#b)" fill-rule="evenodd" clip-rule="evenodd"><path d="M.886.872H56v38.256H.886V.872Z" fill="#fff"/><path d="M50.456 17.925a1.796 1.796 0 0 0-1.448 2.065c.172.97 1.1 1.637 2.072 1.466a1.806 1.806 0 0 0 1.465-2.088 1.802 1.802 0 0 0-2.09-1.443Zm.925-6.013A1.803 1.803 0 0 1 49.916 14c-.972.172-1.9-.495-2.071-1.465a1.795 1.795 0 0 1 3.537-.623ZM45.114 22.86c-2.278.38-3.666-.716-4.096-3.154l-.963-5.452-1.633.289-.365-2.066 1.633-.287-.423-2.396 2.876-.868.484 2.747 2.523-.444.076 2.115-2.234.393.952 5.39c.19 1.074.614 1.425 1.358 1.294.393-.069.765-.263 1.172-.611l1.345 1.701c-.708.7-1.732 1.178-2.705 1.35Zm-7.96-7.158 1.407 7.971-2.937.517-1.32-7.475c-.221-1.26-.739-1.53-1.483-1.4-.848.15-1.411.824-1.84 1.9l1.335 7.557-2.937.518-1.932-10.945 2.544-.447.47 1.342c.697-1.251 1.642-2.055 3.048-2.303 1.924-.338 3.28.7 3.645 2.765Zm-14.02 3.938c-.292-1.652-1.04-2.628-2.446-2.38-1.158.203-1.743 1.116-1.523 3.206l3.99-.702-.02-.124Zm3.2 1.46-6.845 1.204c.578 2.07 1.68 2.515 3.087 2.268.93-.164 1.665-.592 2.5-1.42l1.512 1.437c-.922 1.056-2.178 1.916-3.894 2.219-3.516.618-5.765-1.37-6.37-4.799-.583-3.303.743-6.176 3.948-6.74 3.102-.547 5.307 1.194 5.924 4.684.066.372.104.833.138 1.146Zm-18.42.388c.222 1.26 1.058 1.88 2.174 1.684 1.18-.208 1.675-1.02 1.439-2.361-.23-1.301-.94-1.815-2.16-1.6-1.116.196-1.664 1.08-1.452 2.278Zm3.97-3.36c1.45.363 2.279 1.07 2.523 2.452.376 2.127-1.067 3.978-3.86 4.47a5.127 5.127 0 0 1-1.307.08.9.9 0 0 0-.286.797c.065.372.313.69 1.389.5l1.675-.295c2.482-.436 4.308.604 4.629 2.421.39 2.21-1.297 3.89-4.957 4.535-4.012.707-5.337-.4-5.724-2.59l2.626-.462c.183 1.032.718 1.406 2.806 1.038 2.027-.357 2.467-1.008 2.328-1.793-.131-.743-.77-1.1-1.928-.896l-1.613.284c-2.295.404-3.423-.419-3.626-1.576-.14-.784.222-1.635.92-2.27-1.495-.503-2.245-1.372-2.493-2.776-.427-2.416 1.223-4.303 3.972-4.787 2.534-.382 3.704-1.249 4.896-2.225l1.121 2.123c-.751.452-1.768.738-3.09.97Z" fill="#000"/></g></g><defs><clipPath id="a"><path fill="#fff" transform="translate(.886 .872)" d="M0 0h55.114v38.256H0z"/></clipPath></defs></svg>