<svg width="98" height="38" fill="none" xmlns="http://www.w3.org/2000/svg"><g clip-path="url(#a)" fill="#fff"><path d="M97.156 8.23c-.93-.28-1.9-.41-2.8-.4-1.94.03-3 .83-2.88 2.06.23 2.41 6.33 4.38 6.35 9.73.01 4.2-2.67 8.9-10.45 9.04-4.61.04-11.05-1.26-11.05-1.26l3.02-6.53c3.52.97 5.97 1.75 8.6 1.71 1.86-.02 2.83-.86 2.82-2.16-.01-2.9-5.5-3.98-6.04-9.67-.45-4.66 2.51-8.3 9.34-8.41 1.36-.02 2.68.06 3.83.23l-.72 5.67-.02-.01Zm-37.54-5.05s-3.12-1-7.7-.39c-6.22.83-14.07 8.97-12.53 18.05.93 5.48 3.6 8.07 7.51 8.06 4.2 0 7.21-3.53 8.64-7.22h.06c-.26 2.61.06 6.73.06 6.73h7.48c-1.44-11.54-2.4-15.82-3.52-25.23Zm-5.77 5.81c.19.28.04 1.37.04 1.37-.34 4.84-3.61 11.78-6.37 11.58-.99-.07-1.53-.99-1.75-2.95-.53-4.75 3.27-9.82 5.68-10.42 1.3-.33 2.04-.12 2.4.42Zm23.26-6.3-5.99 16.18h-.1c0-.15-.04-.3-.1-.46-.5-2.86-1.56-14.22-1.64-15.03v-.05h-7.25v.04h-.12l3.92 24.79h7.33l11.35-24.02-7.41-1.45h.01ZM30.336 28c-2.2.69-5.61 1.44-10.11 1.44-4.5 0-7.91-.75-10.11-1.44.5-2.24 1.56-5.56 3.81-9.45 2.45-4.24 4.88-6.85 6.3-8.17 1.42 1.32 3.85 3.93 6.3 8.17 2.25 3.89 3.3 7.21 3.81 9.45Zm9.26 4.73c-.02-.32-.54-8.01-6.29-17.97-5.77-9.99-12.35-13.44-12.63-13.58h-.01l-.43-.2-.22.1-.22.1h-.01c-.28.15-6.86 3.6-12.63 13.59-5.76 9.95-6.22 17.64-6.23 17.96l-.02.34.3.16c.29.15 7.31 3.79 18.82 3.79h.41c11.51 0 18.59-3.64 18.88-3.79l.31-.16-.02-.35-.01.01Zm5.01-.18c0-.59-.33-.97-1-.97-.88 0-1.52.74-1.52 1.64 0 .59.33.94 1 .94.84 0 1.51-.71 1.51-1.61m-.54.05c0 .54-.33 1.11-.92 1.11-.37 0-.53-.22-.53-.55 0-.69.42-1.13.9-1.13.37 0 .54.23.54.56m3.73-.04c0-.59-.33-.97-1-.97-.88 0-1.52.74-1.52 1.64 0 .59.33.94 1 .94.84 0 1.51-.71 1.51-1.61m-.54.05c0 .54-.33 1.11-.92 1.11-.37 0-.53-.22-.53-.55 0-.69.42-1.13.9-1.13.37 0 .54.23.54.56m2.79-.53c-.13-.04-.26-.07-.4-.07-.28 0-.45.12-.45.35 0 .35.79.33.79.93 0 .51-.45.9-1.08.9-.22 0-.38-.02-.52-.06l.1-.46c.12.05.29.1.46.1.31 0 .47-.17.47-.37 0-.39-.78-.32-.78-.92 0-.46.37-.86 1.02-.86.22 0 .35.02.48.04l-.09.44v-.02Zm2.59.01h-.67l-.4 2.05h-.5l.39-2.05h-.68l.09-.44h1.85l-.08.44Zm1.59.64h-1.15v.41h1.15v-.41Zm1.9 1.41h-.59l-.45-2.49h.53l.23 1.28c.04.22.07.44.09.65.1-.22.21-.45.32-.64l.72-1.29h.56l-1.41 2.49Zm3.03 0h-1.33l.47-2.49h.5l-.38 2.04h.82l-.08.45Zm2.98 0-.44-2.49h-.6l-1.4 2.49h.53l.27-.48h1.02l.08.48h.55-.01Zm-.68-.86h-.77l.39-.69c.07-.13.13-.25.2-.39 0 .12.02.25.05.38l.12.7h.01Zm3.65.86-.44-2.49h-.6l-1.4 2.49h.53l.27-.48h1.02l.08.48h.55-.01Zm-.68-.86h-.77l.39-.69c.07-.13.13-.25.2-.39 0 .12.02.25.05.38l.12.7h.01Zm4.58.86h-.53l.06-1.28c.01-.24.03-.44.04-.57-.06.14-.13.31-.21.46l-.73 1.39h-.53l-.17-1.29c-.02-.18-.04-.39-.04-.56-.05.2-.11.38-.17.59l-.4 1.26h-.52l.85-2.49h.63l.19 1.39c.02.15.04.32.04.46.06-.16.12-.29.21-.45l.74-1.4h.66l-.1 2.49h-.02Zm2.6-2.06c-.13-.04-.26-.07-.4-.07-.28 0-.45.12-.45.35 0 .35.79.33.79.93 0 .51-.45.9-1.08.9-.22 0-.38-.02-.52-.06l.1-.46c.12.05.29.1.46.1.31 0 .47-.17.47-.37 0-.39-.78-.32-.78-.92 0-.46.37-.86 1.02-.86.22 0 .35.02.48.04l-.09.44v-.02Zm2.6-.03h-.92l-.12.61h.88l-.07.4h-.89l-.12.67h.92l-.07.41h-1.44l.48-2.49h1.43l-.08.4Zm3.89.04h-.67l-.39 2.05h-.51l.39-2.05h-.68l.09-.44h1.86l-.09.44Zm2.29-.04h-.92l-.12.61h.88l-.07.4h-.89l-.12.67h.92l-.07.41h-1.44l.48-2.49h1.43l-.08.4Zm2.02 2.09h-1.34l.48-2.49h.5l-.39 2.04h.83l-.08.45Zm2.69-2.09h-.93l-.12.61h.89l-.08.4h-.88l-.13.67h.93l-.08.41h-1.43l.47-2.49h1.43l-.07.4Zm1.78 2.09h-.59l-.45-2.49h.53l.23 1.28c.04.22.07.44.09.65.1-.22.21-.45.32-.64l.72-1.29h.56l-1.41 2.49Zm2.18-2.49-.48 2.49h.5l.48-2.49h-.5Zm2.75.43c-.13-.04-.26-.07-.4-.07-.28 0-.45.12-.45.35 0 .35.79.33.79.93 0 .51-.45.9-1.08.9-.22 0-.38-.02-.52-.06l.1-.46c.12.05.29.1.46.1.31 0 .47-.17.47-.37 0-.39-.78-.32-.78-.92 0-.46.37-.86 1.02-.86.22 0 .35.02.48.04l-.09.44v-.02Zm1.42-.43-.31 2.24h.33l.31-2.24h-.33Zm2.88.4h-.92l-.12.61h.88l-.07.4h-.89l-.12.67h.92l-.08.41h-1.43l.48-2.49h1.43l-.08.4Z"/></g><defs><clipPath id="a"><path fill="#fff" transform="translate(.906 .98)" d="M0 0h96.98v36.04H0z"/></clipPath></defs></svg>