<!-- Generated by IcoMoon.io -->
<svg version="1.1" xmlns="http://www.w3.org/2000/svg" width="32" height="32" viewBox="0 0 32 32">
<title>profile</title>
<path d="M16.003 15.979c-2.91 0-5.268-2.323-5.268-5.19s2.358-5.19 5.268-5.19 5.268 2.323 5.268 5.19-2.358 5.19-5.268 5.19zM16.003 13.584c1.566 0 2.837-1.251 2.837-2.794s-1.27-2.794-2.837-2.794-2.837 1.251-2.837 2.794c0 1.543 1.27 2.794 2.837 2.794zM26.331 24.788c0.222 0.624-0.112 1.307-0.745 1.526-0.12 0.043-0.258 0.068-0.403 0.068-0.524 0-0.971-0.33-1.144-0.794l-0.003-0.008c-1.186-3.332-4.39-5.609-8.034-5.609-3.65 0-6.858 2.284-8.039 5.624-0.175 0.474-0.623 0.805-1.148 0.805-0.143 0-0.281-0.025-0.409-0.070l0.009 0.003c-0.477-0.163-0.815-0.608-0.815-1.132 0-0.141 0.024-0.276 0.069-0.401l-0.003 0.008c1.518-4.296 5.642-7.232 10.335-7.232 4.685 0 8.803 2.926 10.328 7.212z"></path>
</svg>
