<!-- Generated by IcoMoon.io -->
<svg version="1.1" xmlns="http://www.w3.org/2000/svg" width="32" height="32" viewBox="0 0 32 32">
<title>raster</title>
<path d="M0 28c0 2.209 1.791 4 4 4s4-1.791 4-4v0c0-2.209-1.791-4-4-4s-4 1.791-4 4v0M4 12c-2.209 0-4 1.791-4 4s1.791 4 4 4c2.209 0 4-1.791 4-4s-1.791-4-4-4zM28 8c2.209 0 4-1.791 4-4s-1.791-4-4-4c-2.209 0-4 1.791-4 4s1.791 4 4 4zM0 4c0 2.209 1.791 4 4 4s4-1.791 4-4v0c0-2.209-1.791-4-4-4s-4 1.791-4 4v0M28 12c-2.209 0-4 1.791-4 4s1.791 4 4 4c2.209 0 4-1.791 4-4s-1.791-4-4-4zM28 24c-2.209 0-4 1.791-4 4s1.791 4 4 4c2.209 0 4-1.791 4-4s-1.791-4-4-4zM12 28c0 2.209 1.791 4 4 4s4-1.791 4-4v0c0-2.209-1.791-4-4-4s-4 1.791-4 4v0M12 4c0 2.209 1.791 4 4 4s4-1.791 4-4v0c0-2.209-1.791-4-4-4s-4 1.791-4 4v0M16 12c-2.209 0-4 1.791-4 4s1.791 4 4 4c2.209 0 4-1.791 4-4s-1.791-4-4-4z"></path>
</svg>
