<!-- Generated by IcoMoon.io -->
<svg version="1.1" xmlns="http://www.w3.org/2000/svg" width="32" height="32" viewBox="0 0 32 32">
<title>readspeaker</title>
<path d="M28.5 17.5h-4c-0.828 0-1.5-0.672-1.5-1.5s0.672-1.5 1.5-1.5v0h4c0.828 0 1.5 0.672 1.5 1.5s-0.672 1.5-1.5 1.5v0zM27.499 24.5c-0 0-0 0-0 0-0.31 0-0.598-0.095-0.836-0.256l0.005 0.003-3-2c-0.413-0.272-0.682-0.733-0.682-1.257 0-0.828 0.672-1.5 1.5-1.5 0.316 0 0.609 0.098 0.851 0.264l-0.005-0.003 3 2c0.405 0.273 0.668 0.73 0.668 1.248 0 0.828-0.672 1.5-1.5 1.5-0 0-0.001 0-0.001 0h0zM23.668 9.75l3-2c0.237-0.163 0.53-0.261 0.846-0.261 0.828 0 1.5 0.672 1.5 1.5 0 0.524-0.269 0.985-0.676 1.254l-0.006 0.004-3 2c-0.234 0.159-0.522 0.253-0.833 0.253-0.518 0-0.975-0.263-1.244-0.664l-0.003-0.005c-0.158-0.234-0.252-0.522-0.252-0.832 0-0.518 0.263-0.975 0.663-1.245l0.005-0.003zM17 22.191l-6-2.667v-7.050l6-2.666v12.382zM5 18.998h3v-6h-3v6zM17.891 6.13l-8.71 3.87h-5.681c-0.828 0-1.5 0.672-1.5 1.5v0 9c0 0.828 0.672 1.5 1.5 1.5v0h5.681l8.71 3.871c0.179 0.081 0.388 0.129 0.608 0.129 0.304 0 0.587-0.090 0.823-0.245l-0.006 0.004c0.414-0.272 0.683-0.733 0.683-1.258 0 0 0 0 0-0v0-17c-0-0.828-0.672-1.499-1.5-1.499-0.221 0-0.43 0.048-0.618 0.133l0.009-0.004z"></path>
</svg>
