<!-- Generated by IcoMoon.io -->
<svg version="1.1" xmlns="http://www.w3.org/2000/svg" width="32" height="32" viewBox="0 0 32 32">
<title>right</title>
<path d="M17.904 16l-5.968-5.96c-0.27-0.269-0.436-0.641-0.436-1.052s0.167-0.783 0.436-1.052l0-0c0.27-0.27 0.642-0.436 1.053-0.436s0.784 0.167 1.053 0.436l7.020 7.012c0.582 0.581 0.582 1.523 0 2.104l-7.020 7.012c-0.27 0.27-0.642 0.436-1.053 0.436s-0.784-0.167-1.053-0.436v0c-0.269-0.269-0.436-0.641-0.436-1.052s0.167-0.782 0.436-1.052l5.968-5.961z"></path>
</svg>
