<!-- Generated by IcoMoon.io -->
<svg version="1.1" xmlns="http://www.w3.org/2000/svg" width="32" height="32" viewBox="0 0 32 32">
<title>share</title>
<path d="M23 26c-1.103 0-2-0.897-2-2s0.897-2 2-2 2 0.897 2 2-0.897 2-2 2M9 18c-1.103 0-2-0.897-2-2s0.897-2 2-2 2 0.897 2 2-0.897 2-2 2M23 6c1.103 0 2 0.897 2 2s-0.897 2-2 2-2-0.897-2-2 0.897-2 2-2M23 19c-1.43 0-2.711 0.607-3.622 1.569l-5.446-3.89c0.030-0.224 0.068-0.447 0.068-0.679 0-0.236-0.038-0.461-0.069-0.688l5.391-3.95c0.911 1.006 2.221 1.635 3.678 1.638h0c2.761 0 5-2.239 5-5s-2.239-5-5-5c-2.761 0-5 2.239-5 5v0c0 0.195 0.036 0.381 0.058 0.57l-5.445 3.988c-0.909-0.959-2.191-1.557-3.613-1.558h-0c-2.761 0-5 2.239-5 5s2.239 5 5 5v0c1.43 0 2.711-0.607 3.622-1.569l5.446 3.89c-0.030 0.224-0.068 0.447-0.068 0.679 0 2.761 2.239 5 5 5s5-2.239 5-5c0-2.761-2.239-5-5-5v0"></path>
</svg>
