<!-- Generated by IcoMoon.io -->
<svg version="1.1" xmlns="http://www.w3.org/2000/svg" width="32" height="32" viewBox="0 0 32 32">
<title>star-empty</title>
<path d="M20.109 10.688v0zM12.155 10.688v0zM7.824 13.925l3.493 2.837c0.565 0.463 0.922 1.16 0.922 1.941 0 0.229-0.031 0.451-0.088 0.661l0.004-0.018-1.157 4.348 3.777-2.445c0.383-0.252 0.854-0.402 1.358-0.402s0.975 0.15 1.368 0.408l-0.009-0.006 3.777 2.445-1.158-4.349c-0.053-0.192-0.083-0.413-0.083-0.641 0-0.781 0.357-1.478 0.917-1.937l0.004-0.003 3.493-2.838-4.492-0.242c-1.002-0.057-1.843-0.695-2.192-1.581l-0.006-0.017-1.619-4.198-1.618 4.198c-0.356 0.904-1.197 1.543-2.195 1.598l-0.006 0-4.49 0.242zM22.358 24.4v0zM22.087 27.324c-0.506-0.001-0.976-0.152-1.368-0.411l0.009 0.006-4.595-2.974-4.594 2.973c-0.383 0.254-0.853 0.405-1.359 0.405-0.553 0-1.064-0.181-1.476-0.487l0.007 0.005c-0.628-0.456-1.032-1.188-1.032-2.014 0-0.232 0.032-0.456 0.091-0.669l-0.004 0.017 1.407-5.287-4.247-3.45c-0.567-0.458-0.927-1.154-0.927-1.933 0-0.279 0.046-0.547 0.131-0.797l-0.005 0.017c0.317-0.972 1.192-1.671 2.237-1.725l0.006-0 5.464-0.293 1.969-5.107c0.365-0.943 1.265-1.6 2.319-1.6 0.005 0 0.009 0 0.014 0h-0.001c1.042 0 1.958 0.628 2.333 1.6l1.969 5.106 5.465 0.293c1.040 0.056 1.92 0.733 2.242 1.724 0.079 0.232 0.125 0.5 0.125 0.779 0 0.78-0.36 1.476-0.923 1.932l-0.005 0.004-4.247 3.45 1.409 5.288c0.055 0.195 0.087 0.419 0.087 0.65 0 0.827-0.404 1.559-1.025 2.010l-0.007 0.005c-0.406 0.301-0.916 0.482-1.469 0.483h-0z"></path>
</svg>
