<!-- Generated by IcoMoon.io -->
<svg version="1.1" xmlns="http://www.w3.org/2000/svg" width="32" height="32" viewBox="0 0 32 32">
<title>star-half</title>
<path d="M14.775 21.53l-3.777 2.444 1.157-4.346c0.053-0.193 0.084-0.414 0.084-0.643 0-0.781-0.357-1.478-0.918-1.937l-0.004-0.003-3.493-2.838 4.49-0.242c1.003-0.056 1.845-0.694 2.195-1.58l0.006-0.017 1.618-4.198v12.96c-0.472 0-0.945 0.133-1.358 0.401M28.142 13.004c-0.317-0.971-1.191-1.67-2.236-1.723l-0.006-0-5.465-0.296-1.969-5.104c-0.355-0.91-1.208-1.552-2.215-1.591l-0.005-0-0.114-0.29v0.28c-0.004-0-0.008-0-0.012-0-1.054 0-1.954 0.657-2.314 1.583l-0.006 0.017-1.969 5.106-5.464 0.294c-1.051 0.053-1.926 0.753-2.238 1.707l-0.005 0.018c-0.080 0.232-0.125 0.5-0.125 0.779 0 0.779 0.36 1.475 0.922 1.929l0.005 0.004 4.247 3.45-1.407 5.288c-0.056 0.196-0.087 0.421-0.087 0.653 0 0.826 0.404 1.558 1.025 2.009l0.007 0.005c0.406 0.3 0.916 0.481 1.469 0.481 0.506 0 0.976-0.151 1.368-0.41l-0.009 0.006 4.594-2.974 4.595 2.974c0.418 0.27 0.89 0.404 1.36 0.404 0.514 0 1.027-0.16 1.468-0.48 0.629-0.456 1.033-1.188 1.033-2.015 0-0.232-0.032-0.456-0.091-0.668l0.004 0.017-1.409-5.288 4.247-3.45c0.567-0.459 0.927-1.155 0.927-1.935 0-0.278-0.046-0.546-0.13-0.796l0.005 0.018"></path>
</svg>
