<!-- Generated by IcoMoon.io -->
<svg version="1.1" xmlns="http://www.w3.org/2000/svg" width="32" height="32" viewBox="0 0 32 32">
<title>sync</title>
<path d="M28.88 13.827c0.045-0.079 0.076-0.164 0.093-0.253l1-5.333c0.064-0.354-0.016-0.718-0.221-1.013s-0.519-0.497-0.872-0.56-0.718 0.016-1.013 0.221c-0.295 0.205-0.496 0.519-0.56 0.873l-0.493 2.667c-1.11-2.027-2.768-3.7-4.786-4.827s-4.311-1.663-6.619-1.546c-2.308 0.117-4.536 0.882-6.429 2.207s-3.374 3.157-4.273 5.286c-0.132 0.327-0.129 0.693 0.009 1.018s0.398 0.582 0.725 0.715c0.163 0.067 0.337 0.102 0.513 0.101s0.35-0.036 0.513-0.104c0.162-0.068 0.31-0.168 0.433-0.293s0.221-0.274 0.287-0.438c0.718-1.764 1.953-3.27 3.543-4.319s3.46-1.593 5.364-1.561c1.684-0.008 3.341 0.429 4.802 1.268s2.675 2.048 3.518 3.506l-2.2-0.36c-0.175-0.028-0.354-0.021-0.527 0.020s-0.335 0.116-0.479 0.22c-0.144 0.104-0.265 0.235-0.358 0.386s-0.155 0.319-0.183 0.494-0.021 0.354 0.020 0.526c0.041 0.172 0.116 0.335 0.22 0.479s0.235 0.265 0.386 0.358c0.151 0.093 0.319 0.155 0.494 0.183l5.667 0.947h0.213c0.155 0.002 0.308-0.025 0.453-0.080 0.049-0.019 0.094-0.046 0.133-0.080 0.096-0.036 0.185-0.085 0.267-0.147l0.107-0.133c0.069-0.065 0.132-0.136 0.187-0.213 0.032-0.068 0.055-0.139 0.067-0.213zM26.507 18.76c-0.164-0.067-0.339-0.101-0.516-0.1s-0.352 0.038-0.514 0.107-0.31 0.171-0.433 0.297c-0.123 0.127-0.22 0.277-0.284 0.441-0.723 1.746-1.953 3.234-3.532 4.273s-3.432 1.58-5.322 1.554c-1.684 0.008-3.341-0.429-4.802-1.268s-2.675-2.048-3.518-3.506l2.2 0.36h0.213c0.354 0.028 0.704-0.085 0.974-0.315s0.438-0.558 0.466-0.912c0.028-0.354-0.085-0.704-0.315-0.974s-0.558-0.438-0.912-0.466l-5.667-0.92c-0.145-0.027-0.295-0.027-0.44 0h-0.107c-0.151 0.040-0.295 0.103-0.427 0.187-0.090 0.069-0.171 0.15-0.24 0.24l-0.12 0.133c-0.041 0.080-0.073 0.165-0.093 0.253-0.047 0.068-0.079 0.145-0.093 0.227l-1 5.333c-0.043 0.177-0.049 0.361-0.018 0.541s0.099 0.351 0.199 0.503c0.1 0.152 0.23 0.283 0.382 0.383s0.324 0.168 0.503 0.199h0.24c0.316 0.005 0.623-0.102 0.867-0.302s0.409-0.48 0.466-0.791l0.493-2.667c1.109 2.027 2.766 3.701 4.783 4.829s4.31 1.666 6.618 1.55c2.308-0.116 4.536-0.879 6.43-2.203s3.376-3.155 4.276-5.283c0.122-0.327 0.111-0.69-0.031-1.009s-0.404-0.57-0.729-0.698z"></path>
</svg>
