<!-- Generated by IcoMoon.io -->
<svg version="1.1" xmlns="http://www.w3.org/2000/svg" width="32" height="32" viewBox="0 0 32 32">
<title>twitter-outline</title>
<path d="M27.335 10.574c-0-0.013-0.001-0.025-0.002-0.038l0 0.002 0.002 0.036zM27.347 10.799c0-0.001 0.005-0.005 0.010-0.010l0.005-0.004-0.015 0.014zM27.479 16.57c-0.515 2.933-2.003 5.56-4.687 7.753-3.93 3.21-9.984 4.213-16.61 2.822-1.54-0.323-1.607-2.495-0.091-2.914 1.046-0.29 1.96-0.732 2.772-1.308l-0.027 0.018c0.206-0.145 0.384-0.284 0.53-0.408-1.184-0.72-2.208-1.532-3.121-2.454l-0.001-0.001c-3.17-3.21-4.6-7.364-3.24-12.366 0.179-0.643 0.759-1.106 1.447-1.106 0.413 0 0.787 0.167 1.059 0.437l-0-0c2.218 2.21 5.391 3.812 9.69 4.18-0.025-0.208-0.040-0.449-0.040-0.693 0-3.328 2.696-6.026 6.023-6.030h0c1.568 0.001 3.048 0.603 4.18 1.695 1.278-0.15 2.433-0.27 3.003-0.304 1.241-0.075 2.029 1.306 1.333 2.336-0.262 0.389-0.568 0.77-0.916 1.151-0.463 0.482-0.923 0.939-1.394 1.386l-0.018 0.017c0.367 2.29 0.449 3.84 0.107 5.79zM20.894 22c3.724-3.043 4.273-6.172 3.476-10.992-0.12-0.724 0.038-1.287 0.428-1.828-0.57-0.093-1.065-0.363-1.439-0.749l-0.001-0.001c-0.546-0.573-1.315-0.93-2.168-0.93-0.002 0-0.005 0-0.007 0h0c-1.669 0.003-3.022 1.356-3.024 3.026v0c0 0.22 0.020 0.42 0.063 0.604 0.173 0.787-0.030 1.61-0.555 2.227-0.476 0.555-1.178 0.905-1.961 0.905-0.054 0-0.107-0.002-0.16-0.005l0.007 0c-4.12-0.249-7.455-1.48-10.050-3.315-0.125 2.765 0.947 5.077 2.874 7.028 0.86 0.867 1.84 1.614 2.914 2.214l0.066 0.034c0.776 0.453 1.289 1.281 1.289 2.229 0 0.651-0.242 1.246-0.642 1.7l0.002-0.003c-0.146 0.17-0.356 0.378-0.62 0.607 3.878 0.081 7.215-0.88 9.506-2.752z"></path>
</svg>
