<!-- Generated by IcoMoon.io -->
<svg version="1.1" xmlns="http://www.w3.org/2000/svg" width="134" height="32" viewBox="0 0 134 32">
<title>uit-pas</title>
<path d="M25.408 7.488l11.968 0.96v3.648l-3.456-0.192v11.648l-4.864 0.384v-12.288l-3.648-0.128zM19.392 6.912l4.8 0.448v4.032l-4.8-0.192zM19.392 12.608l4.8 0.128v11.584l-4.8 0.448zM4.032 5.632l5.248 0.448c0 0 0 12.416 0 13.056 0 0.704 0.512 1.984 2.048 1.984s2.304-0.704 2.304-2.304c0-1.6 0-12.416 0-12.416l4.096 0.32c0 0 0 10.56 0 12.096 0 1.6-0.384 3.712-1.728 4.864-1.408 1.28-2.752 1.984-5.44 1.984-2.112 0-3.264-0.32-4.288-0.896-1.024-0.64-1.728-1.856-1.92-2.56-0.256-0.704-0.384-1.664-0.384-3.264 0.064-1.536 0.064-13.312 0.064-13.312zM41.28 5.696v20.608l-41.28 5.312h51.648v-31.104l-51.52-0.064zM51.648 0.512v30.976h9.664v-11.264h4.864c3.008 0 6.144-0.448 8.512-2.432 2.304-1.856 3.456-4.672 3.456-7.616 0-3.328-1.728-6.464-4.672-8.128-2.688-1.536-6.144-1.536-9.152-1.536h-12.672zM61.312 13.568v-6.016h2.752c2.176 0 4.544 0.192 4.544 3.008 0 2.88-2.624 3.008-4.864 3.008h-2.432zM95.488 0.448h-10.112l-9.728 31.104h7.808l1.92-6.144h8.32l1.792 6.144h9.792l-9.792-31.104zM86.976 18.624l2.56-9.024 2.56 9.024h-5.12zM120.512 0c-3.072 0-6.464 0.576-8.96 2.368s-4.032 4.736-4.032 7.808c0 7.424 6.976 8.96 12.864 10.112 1.408 0.256 3.84 0.64 3.84 2.56 0 1.728-2.496 1.92-3.712 1.92-2.752 0-4.864-1.024-5.696-3.776l-8.896 1.6c1.664 6.784 7.552 9.472 14.080 9.472 6.464 0 13.952-3.008 13.952-10.496 0-3.392-1.6-6.272-4.672-7.936-2.752-1.408-5.888-1.92-8.832-2.496-1.216-0.256-3.456-0.576-3.456-2.24s1.792-1.984 3.072-1.984c2.432 0 4.16 0.832 5.056 3.136l7.936-2.368c-1.856-5.44-7.104-7.68-12.544-7.68z"></path>
</svg>
