<!-- Generated by IcoMoon.io -->
<svg version="1.1" xmlns="http://www.w3.org/2000/svg" width="36" height="32" viewBox="0 0 36 32">
<title>uit-met-vlieg</title>
<path d="M25.129 10.114c-0.059-0.692-0.639-1.235-1.346-1.235-0.746 0-1.351 0.605-1.351 1.351 0 0.028 0.001 0.055 0.003 0.083 0.043 0.707 0.63 1.268 1.348 1.268 0.746 0 1.351-0.605 1.351-1.351 0-0.039-0.002-0.078-0.005-0.111zM30.716 10.933c0.001 0.019 0.001 0.038 0.001 0.057 0 0.746-0.605 1.351-1.351 1.351-0.698 0-1.273-0.53-1.344-1.209-0.005-0.047-0.007-0.094-0.007-0.142 0-0.746 0.605-1.351 1.351-1.351 0.727 0 1.32 0.574 1.35 1.297zM35.754 18.113c0.994 4.842-5.322 10.228-14.106 12.030-4.91 1.007-9.552 0.681-12.864-0.649l-0.47 0.874c0.135 0.158 0.217 0.365 0.217 0.591 0 0.505-0.41 0.915-0.915 0.915s-0.915-0.41-0.915-0.915c0-0.505 0.41-0.915 0.915-0.915 0.038 0 0.076 0.002 0.113 0.007l0.437-0.823c-0.58-0.269-1.072-0.551-1.537-0.868l-0.972 1.895c0.135 0.158 0.217 0.365 0.217 0.591 0 0.505-0.409 0.914-0.914 0.914-0.159 0-0.309-0.041-0.439-0.112-0.284-0.155-0.478-0.457-0.478-0.804 0-0.159 0.040-0.308 0.112-0.438 0.156-0.283 0.457-0.476 0.803-0.476 0.039 0 0.077 0.002 0.114 0.007l1.048-1.958c-0.781-0.629-1.384-1.353-1.774-2.163l-3.471-0.814 3.039-2.238c0.391-2.418 2.403-4.839 5.455-6.773-3.538-0.727-7.37-2.079-8.552-4.575-0.767-1.623-0.338-3.522 1.281-5.643 1.272-1.67 2.606-2.594 3.979-2.761 0.646-0.886 1.698-1.641 3.153-2.258 2.455-1.043 4.402-0.991 5.785 0.154 2.638 2.186 2.563 7.886 2.125 11.904 0.122-0.037 0.43-0.108 0.739-0.174l0.24-0.044c-0.365-0.647-0.58-1.421-0.58-2.244 0-0.288 0.026-0.571 0.077-0.844 0.447-2.497 2.868-4.186 5.394-3.736 1.457 0.263 2.657 1.18 3.303 2.43 0.562-0.371 1.249-0.609 1.992-0.609 0.215 0 0.425 0.020 0.629 0.058 0.903 0.163 1.682 0.68 2.189 1.404 0.395 0.557 0.627 1.238 0.627 1.972 0 0.215-0.020 0.426-0.058 0.63-0.11 0.608-0.381 1.16-0.767 1.611 2.612 1.044 4.396 2.715 4.833 4.847zM18.287 11.147c0.337 1.598 1.593 2.829 3.179 3.123 0.233 0.042 0.472 0.064 0.716 0.064 1.36 0 2.562-0.68 3.282-1.719l0.284-0.415 0.277 0.401c0.413 0.599 1.044 1.022 1.776 1.154 0.164 0.030 0.333 0.046 0.506 0.046 0.591 0 1.139-0.187 1.588-0.504 0.583-0.408 1-1.036 1.131-1.763 0.031-0.165 0.047-0.334 0.047-0.508 0-0.591-0.186-1.139-0.503-1.587-0.408-0.583-1.036-0.999-1.763-1.13-0.164-0.031-0.334-0.047-0.507-0.047-0.726 0-1.386 0.282-1.877 0.743l-0.356 0.329-0.181-0.452c-0.509-1.271-1.622-2.203-2.974-2.448-2.185-0.389-4.258 1.057-4.644 3.218-0.040 0.211-0.063 0.454-0.063 0.702 0 0.281 0.029 0.555 0.085 0.819zM6.953 3.010c0.082 0.010 0.163 0.020 0.246 0.034 1.317 0.231 2.541 1.134 3.638 2.369l-0.961-2.258c-0.013-0.034-0.020-0.074-0.020-0.115 0-0.186 0.15-0.336 0.336-0.336 0.132 0 0.246 0.076 0.301 0.187l1.843 4.334 1.475-4.532c0.049-0.128 0.171-0.218 0.315-0.218 0.186 0 0.336 0.15 0.336 0.336 0 0.032-0.004 0.063-0.013 0.092l-1.684 5.171c1.615 2.654 2.786 5.665 3.345 7.24 0.391-2.4 0.949-6.959 0.252-10.358-0.307-1.498-0.859-2.77-1.778-3.531-1.174-0.974-2.889-0.99-5.095-0.054-1.106 0.47-1.952 1.017-2.537 1.638zM15.071 16.086l-5.256-4.005-5.983 0.23c-0.185-0.001-0.334-0.151-0.334-0.335 0-0.175 0.135-0.32 0.307-0.334l5.173-0.199-5.129-3.907c-0.081-0.062-0.132-0.158-0.132-0.267 0-0.185 0.15-0.335 0.335-0.335 0.077 0 0.147 0.026 0.204 0.069l3.743 2.851-0.961-4.667c-0.002-0.013-0.003-0.029-0.003-0.045 0-0.186 0.15-0.336 0.336-0.336 0.153 0 0.283 0.103 0.323 0.243l1.107 5.373c0.003 0.015 0.004 0.031 0.005 0.046l6.673 5.084c-1.051-2.933-4.335-11.137-8.398-11.849-1.502-0.263-2.999 0.569-4.453 2.477-1.213 1.59-1.696 3.013-1.445 4.242 0.050 0.243 0.129 0.48 0.238 0.707 1.763 3.727 10.542 4.718 13.65 4.955zM18.662 21.51l1.443-2.147-2.341-1.573c-0.554 0.942-0.163 2.353 0.898 3.72zM21.090 23.719l1.711-2.546-2.321-1.559-1.518 2.261c0.554 0.638 1.25 1.255 2.061 1.8 0.023 0.016 0.045 0.030 0.067 0.043zM24.087 25.084l1.41-2.099-2.32-1.557-1.704 2.535c0.867 0.525 1.765 0.906 2.614 1.121zM27.708 24.469l-1.834-1.231-1.31 1.951c0.657 0.121 1.274 0.134 1.811 0.028 0.594-0.116 1.042-0.368 1.333-0.748z"></path>
</svg>
