<!-- Generated by IcoMoon.io -->
<svg version="1.1" xmlns="http://www.w3.org/2000/svg" width="32" height="32" viewBox="0 0 32 32">
<title>url</title>
<path d="M29.25 18v-0.25c-0.004-3.243-2.632-5.871-5.875-5.875h-0c-0.828 0-1.5 0.672-1.5 1.5s0.672 1.5 1.5 1.5v0c1.587 0.002 2.873 1.288 2.875 2.875v0.25c-0.002 1.587-1.288 2.873-2.875 2.875h-6.25c-1.587-0.002-2.873-1.288-2.875-2.875v-0.25c0-0.952 0.476-1.843 1.274-2.383 0.406-0.273 0.669-0.73 0.669-1.249 0-0.828-0.672-1.5-1.5-1.5-0.318 0-0.613 0.099-0.856 0.268l0.005-0.003c-1.571 1.070-2.59 2.849-2.592 4.867v0.25c0.004 3.243 2.632 5.871 5.875 5.875h6.25c3.243-0.004 5.871-2.632 5.875-5.875v-0M8.875 20c-3.243-0.004-5.871-2.632-5.875-5.875v-0.25c0.004-3.243 2.632-5.871 5.875-5.875h6.25c3.243 0.004 5.871 2.632 5.875 5.875v0.25c0 0.002 0 0.005 0 0.007 0 1.87-0.878 3.535-2.244 4.606l-0.013 0.010c-0.251 0.195-0.57 0.313-0.917 0.313-0.828 0-1.5-0.672-1.5-1.5 0-0.474 0.22-0.896 0.562-1.171l0.003-0.002c0.677-0.529 1.109-1.346 1.109-2.263v-0.25c-0.002-1.587-1.288-2.873-2.875-2.875h-6.25c-1.587 0.002-2.873 1.288-2.875 2.875v0.25c0.002 1.587 1.288 2.873 2.875 2.875h0c0.828 0 1.5 0.672 1.5 1.5s-0.672 1.5-1.5 1.5v0"></path>
</svg>
