<!-- Generated by IcoMoon.io -->
<svg version="1.1" xmlns="http://www.w3.org/2000/svg" width="32" height="32" viewBox="0 0 32 32">
<title>user</title>
<path d="M26.386 27.181c0.559-0.227 0.947-0.766 0.947-1.395 0-0.199-0.039-0.389-0.109-0.563l0.004 0.010c-1.813-4.568-6.154-7.519-11.060-7.519-4.907 0-9.248 2.951-11.060 7.519-0.058 0.153-0.091 0.33-0.091 0.514 0 0.828 0.672 1.5 1.5 1.5 0.614 0 1.142-0.369 1.374-0.898l0.004-0.010c1.328-3.322 4.519-5.626 8.248-5.626 0.008 0 0.017 0 0.025 0h-0.001c0.007-0 0.016-0 0.024-0 3.729 0 6.92 2.304 8.228 5.566l0.021 0.060c0.226 0.559 0.765 0.947 1.394 0.947 0.199 0 0.389-0.039 0.563-0.109l-0.010 0.004M16.166 8c-1.38 0.002-2.498 1.12-2.5 2.5v0c0 1.379 1.122 2.5 2.5 2.5 1.38 0 2.5-1.121 2.5-2.5s-1.12-2.5-2.5-2.5M16.166 16c-3.036-0.003-5.497-2.464-5.5-5.5v-0c0-3.032 2.468-5.5 5.5-5.5 3.033 0 5.5 2.468 5.5 5.5s-2.467 5.5-5.5 5.5"></path>
</svg>
