<!-- Generated by IcoMoon.io -->
<svg version="1.1" xmlns="http://www.w3.org/2000/svg" width="32" height="32" viewBox="0 0 32 32">
<title>vimeo</title>
<path d="M24.405 8.788c-0.465-0.496-1.138-0.76-2-0.785-2.434-0.077-4.155 1.204-5.116 3.808-0.015 0.040-0.024 0.085-0.024 0.133 0 0.102 0.040 0.194 0.104 0.263l-0-0c0.1 0.107 0.25 0.15 0.39 0.111 0.277-0.075 0.55-0.113 0.815-0.113 0.354 0 0.826 0.064 1.061 0.372 0.18 0.236 0.205 0.59 0.073 1.051-0.111 0.39-0.684 1.433-1.394 2.536-0.864 1.345-1.342 1.948-1.48 1.948-0.455 0-2.103-7.232-2.149-7.39-0.472-1.658-0.71-2.49-2.247-2.49-1.172 0-3.785 2.117-5.93 3.961-0.132 0.114-0.243 0.21-0.33 0.282-0.109 0.092-0.179 0.23-0.179 0.383 0 0.118 0.041 0.226 0.109 0.312l-0.001-0.001 0.4 0.51c0.168 0.215 0.475 0.26 0.699 0.102l0.022-0.016c0.694-0.488 1.35-0.95 1.845-0.975 0.538-0.026 1.005 0.805 1.561 2.784 1.060 3.844 2.67 8.426 4.322 8.426 1.727 0 3.787-1.449 6.45-4.878 2.41-3.104 3.701-5.566 3.784-7.357 0.062-1.353-0.202-2.354-0.786-2.977z"></path>
</svg>
