<!-- Generated by IcoMoon.io -->
<svg version="1.1" xmlns="http://www.w3.org/2000/svg" width="305" height="32" viewBox="0 0 305 32">
<title>virtual-fr</title>
<path d="M38.932 24.593l5.887-16.997h3.323l5.887 16.902h-3.703l-1.044-3.229h-5.697l-1.044 3.229h-3.608zM44.534 18.421h3.798l-1.899-5.982-1.899 5.982zM65.994 12.819c-0.285-1.614-1.234-2.564-2.944-2.564-1.994 0-3.039 1.329-3.039 4.558v2.374c0 3.134 1.044 4.558 3.039 4.558 1.709 0 2.564-0.855 2.944-2.564h3.228c-0.57 3.798-2.659 5.507-6.172 5.507-3.798 0-6.457-2.279-6.457-7.501v-2.374c0-5.223 2.659-7.501 6.457-7.501 3.323 0 5.602 1.804 6.172 5.507h-3.228zM84.51 7.596v2.944h-4.653v14.053h-3.418v-14.053h-4.653v-2.944h12.724zM92.012 24.593h-3.418v-16.997h3.418v16.997zM99.703 7.596l3.703 11.395 3.703-11.395h3.798l-5.887 16.902h-3.134l-5.887-16.902h3.703zM118.22 24.593h-3.418v-16.997h3.418v16.997zM135.122 7.596v2.944h-4.653v14.053h-3.418v-14.053h-4.653v-2.944h12.724zM149.46 7.596v2.944h-7.122v3.798h6.362v2.944h-6.362v4.463h7.122v2.944h-10.54v-17.092h10.54zM163.988 7.596l3.703 11.395 3.703-11.395h3.798l-5.887 16.902h-3.134l-5.887-16.902h3.703zM182.599 24.593h-3.418v-16.997h3.418v16.997zM197.317 24.593l-3.039-6.647h-2.754v6.647h-3.418v-16.997h6.077c3.893 0 6.362 1.709 6.362 5.223 0 2.279-1.044 3.798-2.944 4.558l3.513 7.217h-3.798zM193.804 15.003c1.994 0 3.228-0.475 3.228-2.184s-1.139-2.279-3.228-2.279h-2.279v4.463h2.279zM216.214 7.596v2.944h-4.653v14.053h-3.418v-14.053h-4.653v-2.944h12.724zM233.021 7.596v10.065c0 5.033-2.754 7.122-6.552 7.122s-6.552-2.089-6.552-7.027v-10.16h3.418v10.065c0 2.944 0.95 4.178 3.039 4.178s3.039-1.234 3.039-4.178v-10.065h3.608zM248.878 7.596v2.944h-7.122v3.798h6.362v2.944h-6.362v4.463h7.122v2.944h-10.54v-17.092h10.54zM256.665 21.65h7.122v2.944h-10.54v-16.997h3.418v14.053zM271.003 21.65h7.122v2.944h-10.54v-16.997h3.418v14.053zM292.368 7.596v2.944h-7.122v3.798h6.362v2.944h-6.362v4.463h7.122v2.944h-10.54v-17.092h10.54zM71.027 0h-70.932v32h304.522v-32h-233.59zM20.32 19.181c0 0.855-0.665 1.614-1.614 1.614h-9.496c-0.855 0-1.614-0.665-1.614-1.614v-6.362c0-0.855 0.665-1.614 1.614-1.614h9.496c0.855 0 1.614 0.665 1.614 1.614v6.362zM26.683 20.7l-4.748-3.323v-2.849l4.748-3.323v9.496zM302.623 30.101h-268.344v-28.202h268.439v28.202z"></path>
</svg>
