<!-- Generated by IcoMoon.io -->
<svg version="1.1" xmlns="http://www.w3.org/2000/svg" width="32" height="32" viewBox="0 0 32 32">
<title>wheelchair</title>
<path d="M31.009 24.106l0.888 1.794c0.244 0.494 0.044 1.094-0.45 1.338l-4.094 2.056c-1 0.5-2.225 0.075-2.7-0.944l-3.919-8.351h-8.732c-0.994 0-1.838-0.731-1.981-1.719-2.119-14.826-1.994-13.907-2.019-14.282 0-2.275 1.894-4.1 4.194-3.994 2.081 0.094 3.75 1.806 3.807 3.888 0.056 2.056-1.45 3.775-3.413 4.063l0.288 2.044h8.126c0.55 0 1 0.45 1 1v2c0 0.55-0.45 1-1 1h-7.551l0.288 2h8.263c0.775 0 1.481 0.45 1.813 1.15l3.594 7.651 2.263-1.144c0.494-0.25 1.094-0.044 1.338 0.45zM19.464 21.999h-1.531c-0.488 3.388-3.407 6-6.932 6-3.863 0-7.001-3.138-7.001-7 0-2.594 1.419-4.863 3.519-6.075-0.231-1.625-0.425-2.994-0.594-4.144-4.050 1.625-6.926 5.594-6.926 10.219 0 6.063 4.938 11.001 11.001 11.001 4.494 0 8.363-2.706 10.070-6.575l-1.606-3.425z"></path>
</svg>
